<svg version="1.1" viewBox="0.0 0.0 800.0 495.0" fill="none" stroke="none" stroke-linecap="square" stroke-miterlimit="10" width="800" height="495" xmlns:xlink="http://www.w3.org/1999/xlink" xmlns="http://www.w3.org/2000/svg"><path fill="#0d1117" d="M0 0L800.0 0L800.0 495.0L0 495.0L0 0Z" fill-rule="nonzero"/><path stroke="#dcdddd" stroke-width="1.0" stroke-linecap="butt" d="M88.5 65.5L88.5 418.5" fill-rule="nonzero"/><path stroke="#414449" stroke-width="1.0" stroke-linecap="butt" d="M260.5 65.5L260.5 418.5" fill-rule="nonzero"/><path stroke="#414449" stroke-width="1.0" stroke-linecap="butt" d="M432.5 65.5L432.5 418.5" fill-rule="nonzero"/><path stroke="#414449" stroke-width="1.0" stroke-linecap="butt" d="M603.5 65.5L603.5 418.5" fill-rule="nonzero"/><path stroke="#414449" stroke-width="1.0" stroke-linecap="butt" d="M775.5 65.5L775.5 418.5" fill-rule="nonzero"/><clipPath id="id_0"><path d="M88.75 65.25L775.25 65.25L775.25 418.25L88.75 418.25L88.75 65.25Z" clip-rule="nonzero"/></clipPath><path stroke="#000000" stroke-width="2.0" stroke-linecap="butt" stroke-opacity="0.0" clip-path="url(#id_0)" d="M89.0 170.0L89.0 102.0L142.0 102.0C143.10457 102.0 144.0 102.89543 144.0 104.0L144.0 168.0C144.0 169.10457 143.10457 170.0 142.0 170.0Z" fill-rule="nonzero"/><path fill="#8e7cc3" clip-path="url(#id_0)" d="M89.0 170.0L89.0 102.0L142.0 102.0C143.10457 102.0 144.0 102.89543 144.0 104.0L144.0 168.0C144.0 169.10457 143.10457 170.0 142.0 170.0Z" fill-rule="nonzero"/><path stroke="#000000" stroke-width="2.0" stroke-linecap="butt" stroke-opacity="0.0" clip-path="url(#id_0)" d="M89.0 276.0L89.0 208.0L309.0 208.0C310.10458 208.0 311.0 208.89543 311.0 210.0L311.0 274.0C311.0 275.10458 310.10458 276.0 309.0 276.0Z" fill-rule="nonzero"/><path fill="#6fa8dc" clip-path="url(#id_0)" d="M89.0 276.0L89.0 208.0L309.0 208.0C310.10458 208.0 311.0 208.89543 311.0 210.0L311.0 274.0C311.0 275.10458 310.10458 276.0 309.0 276.0Z" fill-rule="nonzero"/><path stroke="#000000" stroke-width="2.0" stroke-linecap="butt" stroke-opacity="0.0" clip-path="url(#id_0)" d="M89.0 381.0L89.0 313.0L642.0 313.0C643.10455 313.0 644.0 313.89542 644.0 315.0L644.0 379.0C644.0 380.10458 643.10455 381.0 642.0 381.0Z" fill-rule="nonzero"/><path fill="#dd7e6b" clip-path="url(#id_0)" d="M89.0 381.0L89.0 313.0L642.0 313.0C643.10455 313.0 644.0 313.89542 644.0 315.0L644.0 379.0C644.0 380.10458 643.10455 381.0 642.0 381.0Z" fill-rule="nonzero"/><path fill="#f0f6fc" d="M371.01562 467.25L369.375 467.25L369.375 464.07812Q369.375 463.0625 369.26562 462.76562Q369.17188 462.46875 368.92188 462.3125Q368.6875 462.14062 368.35938 462.14062Q367.92188 462.14062 367.57812 462.375Q367.25 462.60938 367.125 463.0Q367.0 463.39062 367.0 464.4375L367.0 467.25L365.34375 467.25L365.34375 461.03125L366.875 461.03125L366.875 461.9375Q367.6875 460.89062 368.9375 460.89062Q369.46875 460.89062 369.92188 461.09375Q370.375 461.28125 370.60938 461.59375Q370.84375 461.89062 370.92188 462.28125Q371.01562 462.65625 371.01562 463.375L371.01562 467.25ZM371.78125 465.46875L373.4375 465.21875Q373.54688 465.70312 373.85938 465.95312Q374.1875 466.20312 374.76562 466.20312Q375.40625 466.20312 375.71875 465.96875Q375.9375 465.79688 375.9375 465.53125Q375.9375 465.34375 375.82812 465.21875Q375.70312 465.09375 375.28125 465.0Q373.28125 464.5625 372.75 464.20312Q372.01562 463.6875 372.01562 462.79688Q372.01562 461.98438 372.64062 461.4375Q373.28125 460.89062 374.625 460.89062Q375.90625 460.89062 376.53125 461.3125Q377.15625 461.71875 377.39062 462.53125L375.82812 462.8125Q375.73438 462.45312 375.45312 462.26562Q375.17188 462.0625 374.65625 462.0625Q374.01562 462.0625 373.73438 462.25Q373.54688 462.375 373.54688 462.57812Q373.54688 462.76562 373.70312 462.89062Q373.92188 463.04688 375.23438 463.34375Q376.5625 463.64062 377.07812 464.07812Q377.59375 464.51562 377.59375 465.29688Q377.59375 466.15625 376.875 466.78125Q376.17188 467.39062 374.76562 467.39062Q373.5 467.39062 372.75 466.875Q372.01562 466.35938 371.78125 465.46875ZM382.3125 461.03125L383.84375 461.03125L383.84375 461.9375Q384.15625 461.46875 384.65625 461.1875Q385.17188 460.89062 385.79688 460.89062Q386.875 460.89062 387.625 461.73438Q388.39062 462.57812 388.39062 464.10938Q388.39062 465.65625 387.625 466.53125Q386.85938 467.39062 385.78125 467.39062Q385.26562 467.39062 384.84375 467.1875Q384.42188 466.98438 383.96875 466.48438L383.96875 469.625L382.3125 469.625L382.3125 461.03125ZM383.9375 464.03125Q383.9375 465.07812 384.35938 465.57812Q384.78125 466.07812 385.375 466.07812Q385.95312 466.07812 386.32812 465.625Q386.70312 465.15625 386.70312 464.10938Q386.70312 463.14062 386.3125 462.67188Q385.92188 462.1875 385.34375 462.1875Q384.73438 462.1875 384.32812 462.65625Q383.9375 463.125 383.9375 464.03125ZM392.96875 465.26562L394.60938 465.54688Q394.29688 466.45312 393.60938 466.92188Q392.92188 467.39062 391.90625 467.39062Q390.28125 467.39062 389.5 466.32812Q388.875 465.48438 388.875 464.1875Q388.875 462.64062 389.6875 461.76562Q390.5 460.89062 391.73438 460.89062Q393.125 460.89062 393.92188 461.8125Q394.73438 462.71875 394.6875 464.60938L390.5625 464.60938Q390.59375 465.34375 390.96875 465.75Q391.34375 466.15625 391.92188 466.15625Q392.29688 466.15625 392.5625 465.95312Q392.82812 465.73438 392.96875 465.26562ZM393.0625 463.60938Q393.04688 462.89062 392.6875 462.51562Q392.34375 462.14062 391.82812 462.14062Q391.29688 462.14062 390.9375 462.53125Q390.59375 462.9375 390.59375 463.60938L393.0625 463.60938ZM397.9375 467.25L396.29688 467.25L396.29688 461.03125L397.82812 461.03125L397.82812 461.90625Q398.21875 461.28125 398.53125 461.09375Q398.84375 460.89062 399.23438 460.89062Q399.79688 460.89062 400.32812 461.20312L399.8125 462.625Q399.39062 462.35938 399.04688 462.35938Q398.6875 462.35938 398.45312 462.5625Q398.21875 462.75 398.07812 463.25Q397.9375 463.73438 397.9375 465.32812L397.9375 467.25ZM403.98438 464.04688Q403.98438 463.23438 404.39062 462.46875Q404.79688 461.6875 405.53125 461.29688Q406.26562 460.89062 407.1875 460.89062Q408.59375 460.89062 409.5 461.8125Q410.40625 462.71875 410.40625 464.125Q410.40625 465.53125 409.48438 466.46875Q408.57812 467.39062 407.20312 467.39062Q406.34375 467.39062 405.5625 467.0Q404.79688 466.60938 404.39062 465.875Q403.98438 465.125 403.98438 464.04688ZM405.67188 464.14062Q405.67188 465.0625 406.10938 465.5625Q406.54688 466.04688 407.1875 466.04688Q407.84375 466.04688 408.26562 465.5625Q408.70312 465.0625 408.70312 464.125Q408.70312 463.21875 408.26562 462.73438Q407.84375 462.23438 407.1875 462.23438Q406.54688 462.23438 406.10938 462.73438Q405.67188 463.21875 405.67188 464.14062ZM411.3125 461.03125L412.84375 461.03125L412.84375 461.9375Q413.15625 461.46875 413.65625 461.1875Q414.17188 460.89062 414.79688 460.89062Q415.875 460.89062 416.625 461.73438Q417.39062 462.57812 417.39062 464.10938Q417.39062 465.65625 416.625 466.53125Q415.85938 467.39062 414.78125 467.39062Q414.26562 467.39062 413.84375 467.1875Q413.42188 466.98438 412.96875 466.48438L412.96875 469.625L411.3125 469.625L411.3125 461.03125ZM412.9375 464.03125Q412.9375 465.07812 413.35938 465.57812Q413.78125 466.07812 414.375 466.07812Q414.95312 466.07812 415.32812 465.625Q415.70312 465.15625 415.70312 464.10938Q415.70312 463.14062 415.3125 462.67188Q414.92188 462.1875 414.34375 462.1875Q413.73438 462.1875 413.32812 462.65625Q412.9375 463.125 412.9375 464.03125ZM421.96875 465.26562L423.60938 465.54688Q423.29688 466.45312 422.60938 466.92188Q421.92188 467.39062 420.90625 467.39062Q419.28125 467.39062 418.5 466.32812Q417.875 465.48438 417.875 464.1875Q417.875 462.64062 418.6875 461.76562Q419.5 460.89062 420.73438 460.89062Q422.125 460.89062 422.92188 461.8125Q423.73438 462.71875 423.6875 464.60938L419.5625 464.60938Q419.59375 465.34375 419.96875 465.75Q420.34375 466.15625 420.92188 466.15625Q421.29688 466.15625 421.5625 465.95312Q421.82812 465.73438 421.96875 465.26562ZM422.0625 463.60938Q422.04688 462.89062 421.6875 462.51562Q421.34375 462.14062 420.82812 462.14062Q420.29688 462.14062 419.9375 462.53125Q419.59375 462.9375 419.59375 463.60938L422.0625 463.60938ZM426.9375 467.25L425.29688 467.25L425.29688 461.03125L426.82812 461.03125L426.82812 461.90625Q427.21875 461.28125 427.53125 461.09375Q427.84375 460.89062 428.23438 460.89062Q428.79688 460.89062 429.32812 461.20312L428.8125 462.625Q428.39062 462.35938 428.04688 462.35938Q427.6875 462.35938 427.45312 462.5625Q427.21875 462.75 427.07812 463.25Q426.9375 463.73438 426.9375 465.32812L426.9375 467.25ZM431.59375 462.92188L430.09375 462.65625Q430.34375 461.75 430.95312 461.32812Q431.57812 460.89062 432.79688 460.89062Q433.89062 460.89062 434.42188 461.15625Q434.96875 461.40625 435.1875 461.8125Q435.40625 462.20312 435.40625 463.28125L435.39062 465.20312Q435.39062 466.03125 435.46875 466.42188Q435.54688 466.79688 435.76562 467.25L434.14062 467.25Q434.07812 467.07812 433.98438 466.76562Q433.9375 466.60938 433.92188 466.5625Q433.5 466.98438 433.01562 467.1875Q432.54688 467.39062 432.0 467.39062Q431.03125 467.39062 430.46875 466.875Q429.92188 466.34375 429.92188 465.54688Q429.92188 465.01562 430.17188 464.60938Q430.4375 464.20312 430.89062 463.98438Q431.34375 463.75 432.20312 463.59375Q433.34375 463.375 433.79688 463.1875L433.79688 463.03125Q433.79688 462.54688 433.5625 462.34375Q433.32812 462.14062 432.67188 462.14062Q432.23438 462.14062 431.98438 462.3125Q431.75 462.48438 431.59375 462.92188ZM433.79688 464.26562Q433.48438 464.35938 432.79688 464.51562Q432.10938 464.65625 431.89062 464.79688Q431.57812 465.03125 431.57812 465.375Q431.57812 465.71875 431.82812 465.98438Q432.09375 466.23438 432.48438 466.23438Q432.9375 466.23438 433.34375 465.9375Q433.64062 465.71875 433.73438 465.39062Q433.79688 465.1875 433.79688 464.59375L433.79688 464.26562ZM440.21875 461.03125L440.21875 462.34375L439.09375 462.34375L439.09375 464.84375Q439.09375 465.60938 439.125 465.73438Q439.15625 465.85938 439.26562 465.95312Q439.39062 466.03125 439.54688 466.03125Q439.78125 466.03125 440.20312 465.85938L440.34375 467.14062Q439.78125 467.39062 439.04688 467.39062Q438.60938 467.39062 438.25 467.25Q437.89062 467.09375 437.71875 466.85938Q437.5625 466.60938 437.48438 466.21875Q437.4375 465.92188 437.4375 465.04688L437.4375 462.34375L436.6875 462.34375L436.6875 461.03125L437.4375 461.03125L437.4375 459.79688L439.09375 458.82812L439.09375 461.03125L440.21875 461.03125ZM441.35938 460.1875L441.35938 458.65625L443.01562 458.65625L443.01562 460.1875L441.35938 460.1875ZM441.35938 467.25L441.35938 461.03125L443.01562 461.03125L443.01562 467.25L441.35938 467.25ZM443.98438 464.04688Q443.98438 463.23438 444.39062 462.46875Q444.79688 461.6875 445.53125 461.29688Q446.26562 460.89062 447.1875 460.89062Q448.59375 460.89062 449.5 461.8125Q450.40625 462.71875 450.40625 464.125Q450.40625 465.53125 449.48438 466.46875Q448.57812 467.39062 447.20312 467.39062Q446.34375 467.39062 445.5625 467.0Q444.79688 466.60938 444.39062 465.875Q443.98438 465.125 443.98438 464.04688ZM445.67188 464.14062Q445.67188 465.0625 446.10938 465.5625Q446.54688 466.04688 447.1875 466.04688Q447.84375 466.04688 448.26562 465.5625Q448.70312 465.0625 448.70312 464.125Q448.70312 463.21875 448.26562 462.73438Q447.84375 462.23438 447.1875 462.23438Q446.54688 462.23438 446.10938 462.73438Q445.67188 463.21875 445.67188 464.14062ZM457.01562 467.25L455.375 467.25L455.375 464.07812Q455.375 463.0625 455.26562 462.76562Q455.17188 462.46875 454.92188 462.3125Q454.6875 462.14062 454.35938 462.14062Q453.92188 462.14062 453.57812 462.375Q453.25 462.60938 453.125 463.0Q453.0 463.39062 453.0 464.4375L453.0 467.25L451.34375 467.25L451.34375 461.03125L452.875 461.03125L452.875 461.9375Q453.6875 460.89062 454.9375 460.89062Q455.46875 460.89062 455.92188 461.09375Q456.375 461.28125 456.60938 461.59375Q456.84375 461.89062 456.92188 462.28125Q457.01562 462.65625 457.01562 463.375L457.01562 467.25ZM464.09375 469.78125L462.96875 469.78125Q462.0625 468.42188 461.59375 466.96875Q461.125 465.5 461.125 464.14062Q461.125 462.4375 461.70312 460.9375Q462.21875 459.625 462.98438 458.51562L464.10938 458.51562Q463.3125 460.28125 463.0 461.53125Q462.70312 462.78125 462.70312 464.17188Q462.70312 465.14062 462.875 466.15625Q463.0625 467.15625 463.375 468.0625Q463.57812 468.65625 464.09375 469.78125ZM471.01562 467.25L469.375 467.25L469.375 464.07812Q469.375 463.0625 469.26562 462.76562Q469.17188 462.46875 468.92188 462.3125Q468.6875 462.14062 468.35938 462.14062Q467.92188 462.14062 467.57812 462.375Q467.25 462.60938 467.125 463.0Q467.0 463.39062 467.0 464.4375L467.0 467.25L465.34375 467.25L465.34375 461.03125L466.875 461.03125L466.875 461.9375Q467.6875 460.89062 468.9375 460.89062Q469.46875 460.89062 469.92188 461.09375Q470.375 461.28125 470.60938 461.59375Q470.84375 461.89062 470.92188 462.28125Q471.01562 462.65625 471.01562 463.375L471.01562 467.25ZM471.78125 465.46875L473.4375 465.21875Q473.54688 465.70312 473.85938 465.95312Q474.1875 466.20312 474.76562 466.20312Q475.40625 466.20312 475.71875 465.96875Q475.9375 465.79688 475.9375 465.53125Q475.9375 465.34375 475.82812 465.21875Q475.70312 465.09375 475.28125 465.0Q473.28125 464.5625 472.75 464.20312Q472.01562 463.6875 472.01562 462.79688Q472.01562 461.98438 472.64062 461.4375Q473.28125 460.89062 474.625 460.89062Q475.90625 460.89062 476.53125 461.3125Q477.15625 461.71875 477.39062 462.53125L475.82812 462.8125Q475.73438 462.45312 475.45312 462.26562Q475.17188 462.0625 474.65625 462.0625Q474.01562 462.0625 473.73438 462.25Q473.54688 462.375 473.54688 462.57812Q473.54688 462.76562 473.70312 462.89062Q473.92188 463.04688 475.23438 463.34375Q476.5625 463.64062 477.07812 464.07812Q477.59375 464.51562 477.59375 465.29688Q477.59375 466.15625 476.875 466.78125Q476.17188 467.39062 474.76562 467.39062Q473.5 467.39062 472.75 466.875Q472.01562 466.35938 471.78125 465.46875ZM478.48438 467.39062L480.60938 458.51562L481.84375 458.51562L479.70312 467.39062L478.48438 467.39062ZM481.98438 464.04688Q481.98438 463.23438 482.39062 462.46875Q482.79688 461.6875 483.53125 461.29688Q484.26562 460.89062 485.1875 460.89062Q486.59375 460.89062 487.5 461.8125Q488.40625 462.71875 488.40625 464.125Q488.40625 465.53125 487.48438 466.46875Q486.57812 467.39062 485.20312 467.39062Q484.34375 467.39062 483.5625 467.0Q482.79688 466.60938 482.39062 465.875Q481.98438 465.125 481.98438 464.04688ZM483.67188 464.14062Q483.67188 465.0625 484.10938 465.5625Q484.54688 466.04688 485.1875 466.04688Q485.84375 466.04688 486.26562 465.5625Q486.70312 465.0625 486.70312 464.125Q486.70312 463.21875 486.26562 462.73438Q485.84375 462.23438 485.1875 462.23438Q484.54688 462.23438 484.10938 462.73438Q483.67188 463.21875 483.67188 464.14062ZM489.3125 461.03125L490.84375 461.03125L490.84375 461.9375Q491.15625 461.46875 491.65625 461.1875Q492.17188 460.89062 492.79688 460.89062Q493.875 460.89062 494.625 461.73438Q495.39062 462.57812 495.39062 464.10938Q495.39062 465.65625 494.625 466.53125Q493.85938 467.39062 492.78125 467.39062Q492.26562 467.39062 491.84375 467.1875Q491.42188 466.98438 490.96875 466.48438L490.96875 469.625L489.3125 469.625L489.3125 461.03125ZM490.9375 464.03125Q490.9375 465.07812 491.35938 465.57812Q491.78125 466.07812 492.375 466.07812Q492.95312 466.07812 493.32812 465.625Q493.70312 465.15625 493.70312 464.10938Q493.70312 463.14062 493.3125 462.67188Q492.92188 462.1875 492.34375 462.1875Q491.73438 462.1875 491.32812 462.65625Q490.9375 463.125 490.9375 464.03125ZM495.90625 469.78125Q496.39062 468.73438 496.59375 468.17188Q496.79688 467.625 496.95312 466.90625Q497.125 466.17188 497.20312 465.51562Q497.29688 464.85938 497.29688 464.17188Q497.29688 462.78125 497.0 461.53125Q496.70312 460.28125 495.89062 458.51562L497.01562 458.51562Q497.89062 459.76562 498.375 461.1875Q498.875 462.59375 498.875 464.04688Q498.875 465.28125 498.48438 466.67188Q498.04688 468.25 497.04688 469.78125L495.90625 469.78125Z" fill-rule="nonzero"/><path fill="#f0f6fc" d="M47.640625 140.37686L47.640625 131.78311L49.359375 131.78311L51.390625 137.86124Q51.671875 138.72061 51.796875 139.14249Q51.9375 138.67374 52.25 137.76749L54.3125 131.78311L55.84375 131.78311L55.84375 140.37686L54.75 140.37686L54.75 133.18936L52.25 140.37686L51.21875 140.37686L48.734375 133.06436L48.734375 140.37686L47.640625 140.37686ZM57.5 142.76749L57.375 141.78311Q57.71875 141.87686 57.984375 141.87686Q58.328125 141.87686 58.53125 141.75186Q58.75 141.64249 58.890625 141.43936Q58.984375 141.26749 59.21875 140.64249Q59.234375 140.56436 59.3125 140.39249L56.9375 134.15811L58.078125 134.15811L59.375 137.75186Q59.625 138.43936 59.828125 139.20499Q60.015625 138.47061 60.265625 137.78311L61.59375 134.15811L62.640625 134.15811L60.28125 140.48624Q59.890625 141.50186 59.6875 141.89249Q59.40625 142.42374 59.03125 142.65811Q58.671875 142.90811 58.171875 142.90811Q57.875 142.90811 57.5 142.76749ZM67.796875 138.37686L68.890625 138.50186Q68.640625 139.45499 67.9375 139.98624Q67.234375 140.51749 66.15625 140.51749Q64.796875 140.51749 63.984375 139.67374Q63.1875 138.82999 63.1875 137.31436Q63.1875 135.75186 64.0 134.89249Q64.8125 134.01749 66.09375 134.01749Q67.34375 134.01749 68.125 134.86124Q68.921875 135.70499 68.921875 137.25186Q68.921875 137.34561 68.921875 137.53311L64.28125 137.53311Q64.34375 138.56436 64.859375 139.11124Q65.375 139.64249 66.15625 139.64249Q66.734375 139.64249 67.140625 139.34561Q67.5625 139.03311 67.796875 138.37686ZM64.34375 136.67374L67.8125 136.67374Q67.75 135.87686 67.421875 135.48624Q66.90625 134.87686 66.109375 134.87686Q65.375 134.87686 64.875 135.36124Q64.390625 135.84561 64.34375 136.67374ZM70.515625 140.37686L70.515625 131.78311L71.578125 131.78311L71.578125 140.37686L70.515625 140.37686ZM73.546875 133.00186L73.546875 131.78311L74.609375 131.78311L74.609375 133.00186L73.546875 133.00186ZM73.546875 140.37686L73.546875 134.15811L74.609375 134.15811L74.609375 140.37686L73.546875 140.37686ZM76.546875 140.37686L76.546875 134.15811L77.484375 134.15811L77.484375 135.03311Q78.171875 134.01749 79.46875 134.01749Q80.03125 134.01749 80.5 134.22061Q80.984375 134.42374 81.21875 134.75186Q81.453125 135.07999 81.546875 135.51749Q81.59375 135.81436 81.59375 136.54874L81.59375 140.37686L80.546875 140.37686L80.546875 136.59561Q80.546875 135.93936 80.421875 135.62686Q80.296875 135.31436 79.984375 135.12686Q79.671875 134.92374 79.25 134.92374Q78.578125 134.92374 78.078125 135.36124Q77.59375 135.78311 77.59375 136.97061L77.59375 140.37686L76.546875 140.37686Z" fill-rule="nonzero"/><path fill="#f0f6fc" d="M37.671875 245.75L37.671875 237.15625L40.921875 237.15625Q41.765625 237.15625 42.21875 237.23438Q42.859375 237.34375 43.28125 237.64062Q43.71875 237.9375 43.96875 238.46875Q44.234375 239.0 44.234375 239.64062Q44.234375 240.73438 43.53125 241.5Q42.84375 242.25 41.015625 242.25L38.8125 242.25L38.8125 245.75L37.671875 245.75ZM38.8125 241.25L41.03125 241.25Q42.140625 241.25 42.59375 240.84375Q43.0625 240.42188 43.0625 239.67188Q43.0625 239.14062 42.78125 238.76562Q42.515625 238.375 42.078125 238.25Q41.78125 238.17188 41.015625 238.17188L38.8125 238.17188L38.8125 241.25ZM45.53125 245.75L45.53125 239.53125L46.484375 239.53125L46.484375 240.46875Q46.84375 239.8125 47.140625 239.60938Q47.453125 239.39062 47.828125 239.39062Q48.359375 239.39062 48.90625 239.71875L48.546875 240.70312Q48.15625 240.46875 47.78125 240.46875Q47.421875 240.46875 47.140625 240.6875Q46.875 240.89062 46.765625 241.26562Q46.578125 241.82812 46.578125 242.48438L46.578125 245.75L45.53125 245.75ZM49.15625 242.64062Q49.15625 240.90625 50.109375 240.07812Q50.90625 239.39062 52.0625 239.39062Q53.34375 239.39062 54.15625 240.23438Q54.984375 241.0625 54.984375 242.54688Q54.984375 243.75 54.625 244.4375Q54.265625 245.125 53.5625 245.51562Q52.875 245.89062 52.0625 245.89062Q50.765625 245.89062 49.953125 245.0625Q49.15625 244.21875 49.15625 242.64062ZM50.234375 242.64062Q50.234375 243.82812 50.75 244.42188Q51.28125 245.01562 52.0625 245.01562Q52.859375 245.01562 53.375 244.42188Q53.890625 243.82812 53.890625 242.60938Q53.890625 241.45312 53.359375 240.85938Q52.84375 240.26562 52.0625 240.26562Q51.28125 240.26562 50.75 240.85938Q50.234375 241.4375 50.234375 242.64062ZM58.84375 244.8125L59.0 245.73438Q58.546875 245.82812 58.203125 245.82812Q57.625 245.82812 57.3125 245.65625Q57.0 245.46875 56.859375 245.17188Q56.734375 244.875 56.734375 243.92188L56.734375 240.34375L55.96875 240.34375L55.96875 239.53125L56.734375 239.53125L56.734375 237.98438L57.78125 237.35938L57.78125 239.53125L58.84375 239.53125L58.84375 240.34375L57.78125 240.34375L57.78125 243.98438Q57.78125 244.4375 57.828125 244.5625Q57.890625 244.6875 58.015625 244.76562Q58.140625 244.84375 58.375 244.84375Q58.5625 244.84375 58.84375 244.8125ZM59.15625 242.64062Q59.15625 240.90625 60.109375 240.07812Q60.90625 239.39062 62.0625 239.39062Q63.34375 239.39062 64.15625 240.23438Q64.984375 241.0625 64.984375 242.54688Q64.984375 243.75 64.625 244.4375Q64.265625 245.125 63.5625 245.51562Q62.875 245.89062 62.0625 245.89062Q60.765625 245.89062 59.953125 245.0625Q59.15625 244.21875 59.15625 242.64062ZM60.234375 242.64062Q60.234375 243.82812 60.75 244.42188Q61.28125 245.01562 62.0625 245.01562Q62.859375 245.01562 63.375 244.42188Q63.890625 243.82812 63.890625 242.60938Q63.890625 241.45312 63.359375 240.85938Q62.84375 240.26562 62.0625 240.26562Q61.28125 240.26562 60.75 240.85938Q60.234375 241.4375 60.234375 242.64062ZM67.515625 245.75L66.53125 245.75L66.53125 237.15625L67.59375 237.15625L67.59375 240.21875Q68.265625 239.39062 69.296875 239.39062Q69.875 239.39062 70.375 239.625Q70.890625 239.84375 71.21875 240.26562Q71.5625 240.6875 71.75 241.28125Q71.9375 241.875 71.9375 242.54688Q71.9375 244.14062 71.140625 245.01562Q70.34375 245.89062 69.25 245.89062Q68.140625 245.89062 67.515625 244.96875L67.515625 245.75ZM67.5 242.59375Q67.5 243.70312 67.8125 244.20312Q68.3125 245.01562 69.15625 245.01562Q69.84375 245.01562 70.34375 244.42188Q70.859375 243.82812 70.859375 242.625Q70.859375 241.40625 70.375 240.82812Q69.890625 240.25 69.203125 240.25Q68.515625 240.25 68.0 240.85938Q67.5 241.45312 67.5 242.59375ZM77.625 245.75L77.625 244.82812Q76.890625 245.89062 75.640625 245.89062Q75.09375 245.89062 74.609375 245.6875Q74.140625 245.46875 73.90625 245.15625Q73.671875 244.82812 73.578125 244.35938Q73.515625 244.0625 73.515625 243.375L73.515625 239.53125L74.578125 239.53125L74.578125 242.98438Q74.578125 243.79688 74.640625 244.09375Q74.734375 244.5 75.046875 244.75Q75.375 244.98438 75.859375 244.98438Q76.328125 244.98438 76.734375 244.75Q77.15625 244.5 77.328125 244.07812Q77.515625 243.65625 77.515625 242.85938L77.515625 239.53125L78.5625 239.53125L78.5625 245.75L77.625 245.75ZM80.796875 245.75L80.796875 240.34375L79.859375 240.34375L79.859375 239.53125L80.796875 239.53125L80.796875 238.85938Q80.796875 238.23438 80.90625 237.9375Q81.0625 237.51562 81.4375 237.26562Q81.828125 237.01562 82.515625 237.01562Q82.96875 237.01562 83.5 237.125L83.34375 238.03125Q83.015625 237.98438 82.71875 237.98438Q82.234375 237.98438 82.03125 238.1875Q81.84375 238.39062 81.84375 238.95312L81.84375 239.53125L83.0625 239.53125L83.0625 240.34375L81.84375 240.34375L81.84375 245.75L80.796875 245.75Z" fill-rule="nonzero"/><path fill="#f0f6fc" d="M25.734375 351.12314L25.734375 342.5294L31.53125 342.5294L31.53125 343.545L26.875 343.545L26.875 346.20126L30.90625 346.20126L30.90625 347.2169L26.875 347.2169L26.875 351.12314L25.734375 351.12314ZM32.515625 351.12314L32.515625 342.5294L33.578125 342.5294L33.578125 351.12314L32.515625 351.12314ZM39.609375 350.3575Q39.015625 350.8575 38.46875 351.06064Q37.9375 351.26376 37.3125 351.26376Q36.28125 351.26376 35.734375 350.76376Q35.1875 350.26376 35.1875 349.4825Q35.1875 349.0294 35.390625 348.6544Q35.59375 348.26376 35.9375 348.045Q36.28125 347.81064 36.703125 347.70126Q37.0 347.6075 37.640625 347.5294Q38.90625 347.38876 39.515625 347.17Q39.515625 346.95126 39.515625 346.9044Q39.515625 346.24814 39.21875 345.9825Q38.8125 345.63876 38.015625 345.63876Q37.28125 345.63876 36.921875 345.9044Q36.5625 346.1544 36.390625 346.81064L35.359375 346.67Q35.5 346.01376 35.828125 345.6075Q36.15625 345.20126 36.765625 344.9825Q37.375 344.76376 38.171875 344.76376Q38.96875 344.76376 39.46875 344.95126Q39.96875 345.13876 40.203125 345.42Q40.4375 345.70126 40.53125 346.13876Q40.578125 346.4044 40.578125 347.1075L40.578125 348.51376Q40.578125 349.9825 40.640625 350.37314Q40.71875 350.76376 40.921875 351.12314L39.8125 351.12314Q39.65625 350.795 39.609375 350.3575ZM39.515625 347.99814Q38.9375 348.2325 37.796875 348.4044Q37.140625 348.49814 36.875 348.62314Q36.609375 348.7325 36.453125 348.95126Q36.3125 349.17 36.3125 349.45126Q36.3125 349.87314 36.625 350.1544Q36.953125 350.43564 37.5625 350.43564Q38.171875 350.43564 38.640625 350.17Q39.125 349.9044 39.34375 349.43564Q39.515625 349.07626 39.515625 348.38876L39.515625 347.99814ZM44.84375 350.18564L45.0 351.1075Q44.546875 351.20126 44.203125 351.20126Q43.625 351.20126 43.3125 351.0294Q43.0 350.8419 42.859375 350.545Q42.734375 350.24814 42.734375 349.295L42.734375 345.7169L41.96875 345.7169L41.96875 344.9044L42.734375 344.9044L42.734375 343.3575L43.78125 342.7325L43.78125 344.9044L44.84375 344.9044L44.84375 345.7169L43.78125 345.7169L43.78125 349.3575Q43.78125 349.81064 43.828125 349.93564Q43.890625 350.06064 44.015625 350.13876Q44.140625 350.2169 44.375 350.2169Q44.5625 350.2169 44.84375 350.18564ZM45.625 351.12314L45.625 342.5294L48.859375 342.5294Q49.84375 342.5294 50.4375 342.795Q51.03125 343.06064 51.359375 343.6075Q51.703125 344.13876 51.703125 344.7325Q51.703125 345.2794 51.40625 345.76376Q51.109375 346.24814 50.5 346.545Q51.28125 346.7794 51.6875 347.3419Q52.109375 347.88876 52.109375 348.63876Q52.109375 349.2325 51.859375 349.76376Q51.609375 350.2794 51.234375 350.56064Q50.859375 350.8419 50.28125 350.9825Q49.71875 351.12314 48.90625 351.12314L45.625 351.12314ZM46.765625 346.13876L48.625 346.13876Q49.375 346.13876 49.703125 346.045Q50.140625 345.92 50.359375 345.62314Q50.578125 345.31064 50.578125 344.8575Q50.578125 344.43564 50.375 344.1075Q50.171875 343.7794 49.78125 343.67Q49.40625 343.545 48.484375 343.545L46.765625 343.545L46.765625 346.13876ZM46.765625 350.1075L48.90625 350.1075Q49.453125 350.1075 49.671875 350.06064Q50.078125 349.99814 50.328125 349.8419Q50.59375 349.67 50.765625 349.3575Q50.9375 349.045 50.9375 348.63876Q50.9375 348.1544 50.6875 347.795Q50.453125 347.43564 50.015625 347.295Q49.578125 347.1544 48.75 347.1544L46.765625 347.1544L46.765625 350.1075ZM57.625 351.12314L57.625 350.20126Q56.890625 351.26376 55.640625 351.26376Q55.09375 351.26376 54.609375 351.06064Q54.140625 350.8419 53.90625 350.5294Q53.671875 350.20126 53.578125 349.7325Q53.515625 349.43564 53.515625 348.74814L53.515625 344.9044L54.578125 344.9044L54.578125 348.3575Q54.578125 349.17 54.640625 349.4669Q54.734375 349.87314 55.046875 350.12314Q55.375 350.3575 55.859375 350.3575Q56.328125 350.3575 56.734375 350.12314Q57.15625 349.87314 57.328125 349.45126Q57.515625 349.0294 57.515625 348.2325L57.515625 344.9044L58.5625 344.9044L58.5625 351.12314L57.625 351.12314ZM60.796875 351.12314L60.796875 345.7169L59.859375 345.7169L59.859375 344.9044L60.796875 344.9044L60.796875 344.2325Q60.796875 343.6075 60.90625 343.31064Q61.0625 342.88876 61.4375 342.63876Q61.828125 342.38876 62.515625 342.38876Q62.96875 342.38876 63.5 342.49814L63.34375 343.4044Q63.015625 343.3575 62.71875 343.3575Q62.234375 343.3575 62.03125 343.56064Q61.84375 343.76376 61.84375 344.32626L61.84375 344.9044L63.0625 344.9044L63.0625 345.7169L61.84375 345.7169L61.84375 351.12314L60.796875 351.12314ZM63.796875 351.12314L63.796875 345.7169L62.859375 345.7169L62.859375 344.9044L63.796875 344.9044L63.796875 344.2325Q63.796875 343.6075 63.90625 343.31064Q64.0625 342.88876 64.4375 342.63876Q64.828125 342.38876 65.515625 342.38876Q65.96875 342.38876 66.5 342.49814L66.34375 343.4044Q66.015625 343.3575 65.71875 343.3575Q65.234375 343.3575 65.03125 343.56064Q64.84375 343.76376 64.84375 344.32626L64.84375 344.9044L66.0625 344.9044L66.0625 345.7169L64.84375 345.7169L64.84375 351.12314L63.796875 351.12314ZM70.796875 349.12314L71.890625 349.24814Q71.640625 350.20126 70.9375 350.7325Q70.234375 351.26376 69.15625 351.26376Q67.796875 351.26376 66.984375 350.42Q66.1875 349.57626 66.1875 348.06064Q66.1875 346.49814 67.0 345.63876Q67.8125 344.76376 69.09375 344.76376Q70.34375 344.76376 71.125 345.6075Q71.921875 346.45126 71.921875 347.99814Q71.921875 348.0919 71.921875 348.2794L67.28125 348.2794Q67.34375 349.31064 67.859375 349.8575Q68.375 350.38876 69.15625 350.38876Q69.734375 350.38876 70.140625 350.0919Q70.5625 349.7794 70.796875 349.12314ZM67.34375 347.42L70.8125 347.42Q70.75 346.62314 70.421875 346.2325Q69.90625 345.62314 69.109375 345.62314Q68.375 345.62314 67.875 346.1075Q67.390625 346.5919 67.34375 347.42ZM73.53125 351.12314L73.53125 344.9044L74.484375 344.9044L74.484375 345.8419Q74.84375 345.18564 75.140625 344.9825Q75.453125 344.76376 75.828125 344.76376Q76.359375 344.76376 76.90625 345.0919L76.546875 346.07626Q76.15625 345.8419 75.78125 345.8419Q75.421875 345.8419 75.140625 346.06064Q74.875 346.26376 74.765625 346.63876Q74.578125 347.20126 74.578125 347.8575L74.578125 351.12314L73.53125 351.12314ZM77.125 349.26376L78.15625 349.1075Q78.25 349.7325 78.640625 350.06064Q79.046875 350.38876 79.78125 350.38876Q80.5 350.38876 80.84375 350.1075Q81.203125 349.81064 81.203125 349.4044Q81.203125 349.045 80.890625 348.8419Q80.671875 348.70126 79.8125 348.4825Q78.65625 348.18564 78.203125 347.9825Q77.765625 347.76376 77.53125 347.38876Q77.296875 347.01376 77.296875 346.545Q77.296875 346.13876 77.484375 345.7794Q77.671875 345.42 78.0 345.18564Q78.25 345.01376 78.671875 344.88876Q79.09375 344.76376 79.59375 344.76376Q80.3125 344.76376 80.859375 344.9825Q81.421875 345.18564 81.6875 345.545Q81.953125 345.9044 82.046875 346.49814L81.015625 346.63876Q80.953125 346.17 80.609375 345.9044Q80.28125 345.62314 79.65625 345.62314Q78.9375 345.62314 78.625 345.87314Q78.3125 346.1075 78.3125 346.43564Q78.3125 346.63876 78.4375 346.795Q78.578125 346.9669 78.84375 347.07626Q79.0 347.13876 79.78125 347.3419Q80.90625 347.6544 81.34375 347.8419Q81.78125 348.0294 82.03125 348.38876Q82.28125 348.74814 82.28125 349.295Q82.28125 349.82626 81.96875 350.295Q81.671875 350.74814 81.09375 351.01376Q80.515625 351.26376 79.78125 351.26376Q78.5625 351.26376 77.921875 350.76376Q77.296875 350.24814 77.125 349.26376Z" fill-rule="nonzero"/><path fill="#f0f6fc" d="M85.75 431.01562Q85.75 429.48438 86.0625 428.5625Q86.375 427.625 86.984375 427.125Q87.609375 426.625 88.546875 426.625Q89.234375 426.625 89.75 426.90625Q90.28125 427.1875 90.625 427.71875Q90.96875 428.23438 91.15625 428.98438Q91.34375 429.73438 91.34375 431.01562Q91.34375 432.53125 91.03125 433.45312Q90.734375 434.375 90.109375 434.89062Q89.5 435.39062 88.546875 435.39062Q87.3125 435.39062 86.59375 434.5Q85.75 433.4375 85.75 431.01562ZM86.828125 431.01562Q86.828125 433.125 87.328125 433.82812Q87.828125 434.53125 88.546875 434.53125Q89.28125 434.53125 89.765625 433.82812Q90.265625 433.125 90.265625 431.01562Q90.265625 428.89062 89.765625 428.20312Q89.28125 427.5 88.53125 427.5Q87.8125 427.5 87.375 428.10938Q86.828125 428.89062 86.828125 431.01562Z" fill-rule="nonzero"/><path fill="#f0f6fc" d="M259.42188 434.23438L259.42188 435.25L253.73438 435.25Q253.73438 434.875 253.85938 434.51562Q254.07812 433.9375 254.54688 433.375Q255.03125 432.8125 255.9375 432.07812Q257.34375 430.92188 257.82812 430.25Q258.32812 429.57812 258.32812 428.98438Q258.32812 428.35938 257.875 427.9375Q257.42188 427.5 256.70312 427.5Q255.9375 427.5 255.48438 427.95312Q255.03125 428.40625 255.01562 429.21875L253.9375 429.10938Q254.04688 427.89062 254.76562 427.26562Q255.5 426.625 256.73438 426.625Q257.96875 426.625 258.6875 427.3125Q259.40625 428.0 259.40625 429.01562Q259.40625 429.53125 259.1875 430.03125Q258.98438 430.51562 258.48438 431.07812Q258.0 431.625 256.875 432.57812Q255.92188 433.375 255.64062 433.67188Q255.375 433.95312 255.20312 434.23438L259.42188 434.23438ZM260.875 431.01562Q260.875 429.48438 261.1875 428.5625Q261.5 427.625 262.10938 427.125Q262.73438 426.625 263.67188 426.625Q264.35938 426.625 264.875 426.90625Q265.40625 427.1875 265.75 427.71875Q266.09375 428.23438 266.28125 428.98438Q266.46875 429.73438 266.46875 431.01562Q266.46875 432.53125 266.15625 433.45312Q265.85938 434.375 265.23438 434.89062Q264.625 435.39062 263.67188 435.39062Q262.4375 435.39062 261.71875 434.5Q260.875 433.4375 260.875 431.01562ZM261.95312 431.01562Q261.95312 433.125 262.45312 433.82812Q262.95312 434.53125 263.67188 434.53125Q264.40625 434.53125 264.89062 433.82812Q265.39062 433.125 265.39062 431.01562Q265.39062 428.89062 264.89062 428.20312Q264.40625 427.5 263.65625 427.5Q262.9375 427.5 262.5 428.10938Q261.95312 428.89062 261.95312 431.01562Z" fill-rule="nonzero"/><path fill="#f0f6fc" d="M428.875 435.25L428.875 433.1875L425.15625 433.1875L425.15625 432.21875L429.07812 426.65625L429.9375 426.65625L429.9375 432.21875L431.09375 432.21875L431.09375 433.1875L429.9375 433.1875L429.9375 435.25L428.875 435.25ZM428.875 432.21875L428.875 428.35938L426.1875 432.21875L428.875 432.21875ZM432.5 431.01562Q432.5 429.48438 432.8125 428.5625Q433.125 427.625 433.73438 427.125Q434.35938 426.625 435.29688 426.625Q435.98438 426.625 436.5 426.90625Q437.03125 427.1875 437.375 427.71875Q437.71875 428.23438 437.90625 428.98438Q438.09375 429.73438 438.09375 431.01562Q438.09375 432.53125 437.78125 433.45312Q437.48438 434.375 436.85938 434.89062Q436.25 435.39062 435.29688 435.39062Q434.0625 435.39062 433.34375 434.5Q432.5 433.4375 432.5 431.01562ZM433.57812 431.01562Q433.57812 433.125 434.07812 433.82812Q434.57812 434.53125 435.29688 434.53125Q436.03125 434.53125 436.51562 433.82812Q437.01562 433.125 437.01562 431.01562Q437.01562 428.89062 436.51562 428.20312Q436.03125 427.5 435.28125 427.5Q434.5625 427.5 434.125 428.10938Q433.57812 428.89062 433.57812 431.01562Z" fill-rule="nonzero"/><path fill="#f0f6fc" d="M602.59375 428.76562L601.5469 428.84375Q601.40625 428.21875 601.15625 427.9375Q600.71875 427.48438 600.09375 427.48438Q599.59375 427.48438 599.2031 427.76562Q598.71875 428.14062 598.4219 428.84375Q598.1406 429.53125 598.125 430.8125Q598.5 430.23438 599.0469 429.95312Q599.6094 429.67188 600.21875 429.67188Q601.2656 429.67188 602.0 430.45312Q602.75 431.23438 602.75 432.45312Q602.75 433.26562 602.3906 433.96875Q602.0469 434.65625 601.4375 435.03125Q600.8281 435.39062 600.0625 435.39062Q598.7344 435.39062 597.90625 434.42188Q597.0781 433.45312 597.0781 431.23438Q597.0781 428.73438 598.0 427.60938Q598.7969 426.625 600.15625 426.625Q601.1719 426.625 601.8125 427.20312Q602.46875 427.76562 602.59375 428.76562ZM598.2969 432.46875Q598.2969 433.01562 598.5156 433.51562Q598.75 434.0 599.15625 434.26562Q599.5781 434.53125 600.0469 434.53125Q600.7031 434.53125 601.1875 434.0Q601.6719 433.45312 601.6719 432.53125Q601.6719 431.64062 601.1875 431.125Q600.71875 430.60938 600.0 430.60938Q599.28125 430.60938 598.78125 431.125Q598.2969 431.64062 598.2969 432.46875ZM604.125 431.01562Q604.125 429.48438 604.4375 428.5625Q604.75 427.625 605.3594 427.125Q605.9844 426.625 606.9219 426.625Q607.6094 426.625 608.125 426.90625Q608.65625 427.1875 609.0 427.71875Q609.34375 428.23438 609.53125 428.98438Q609.71875 429.73438 609.71875 431.01562Q609.71875 432.53125 609.40625 433.45312Q609.1094 434.375 608.4844 434.89062Q607.875 435.39062 606.9219 435.39062Q605.6875 435.39062 604.96875 434.5Q604.125 433.4375 604.125 431.01562ZM605.2031 431.01562Q605.2031 433.125 605.7031 433.82812Q606.2031 434.53125 606.9219 434.53125Q607.65625 434.53125 608.1406 433.82812Q608.6406 433.125 608.6406 431.01562Q608.6406 428.89062 608.1406 428.20312Q607.65625 427.5 606.90625 427.5Q606.1875 427.5 605.75 428.10938Q605.2031 428.89062 605.2031 431.01562Z" fill-rule="nonzero"/><path fill="#f0f6fc" d="M770.375 430.59375Q769.71875 430.34375 769.3906 429.90625Q769.0781 429.45312 769.0781 428.84375Q769.0781 427.90625 769.75 427.26562Q770.4375 426.625 771.5469 426.625Q772.6719 426.625 773.3594 427.28125Q774.0469 427.9375 774.0469 428.875Q774.0469 429.46875 773.7344 429.90625Q773.4219 430.34375 772.78125 430.59375Q773.5781 430.84375 773.9844 431.42188Q774.3906 432.0 774.3906 432.79688Q774.3906 433.89062 773.6094 434.64062Q772.84375 435.39062 771.5625 435.39062Q770.2969 435.39062 769.5156 434.64062Q768.7344 433.89062 768.7344 432.76562Q768.7344 431.92188 769.15625 431.35938Q769.59375 430.79688 770.375 430.59375ZM770.15625 428.79688Q770.15625 429.40625 770.5469 429.79688Q770.9531 430.1875 771.5781 430.1875Q772.1875 430.1875 772.5781 429.8125Q772.96875 429.42188 772.96875 428.85938Q772.96875 428.28125 772.5625 427.89062Q772.15625 427.48438 771.5625 427.48438Q770.9531 427.48438 770.5469 427.875Q770.15625 428.26562 770.15625 428.79688ZM769.8281 432.76562Q769.8281 433.21875 770.03125 433.64062Q770.25 434.0625 770.6719 434.29688Q771.09375 434.53125 771.5781 434.53125Q772.3281 434.53125 772.8125 434.04688Q773.3125 433.5625 773.3125 432.8125Q773.3125 432.04688 772.8125 431.54688Q772.3125 431.04688 771.5469 431.04688Q770.7969 431.04688 770.3125 431.54688Q769.8281 432.03125 769.8281 432.76562ZM775.75 431.01562Q775.75 429.48438 776.0625 428.5625Q776.375 427.625 776.9844 427.125Q777.6094 426.625 778.5469 426.625Q779.2344 426.625 779.75 426.90625Q780.28125 427.1875 780.625 427.71875Q780.96875 428.23438 781.15625 428.98438Q781.34375 429.73438 781.34375 431.01562Q781.34375 432.53125 781.03125 433.45312Q780.7344 434.375 780.1094 434.89062Q779.5 435.39062 778.5469 435.39062Q777.3125 435.39062 776.59375 434.5Q775.75 433.4375 775.75 431.01562ZM776.8281 431.01562Q776.8281 433.125 777.3281 433.82812Q777.8281 434.53125 778.5469 434.53125Q779.28125 434.53125 779.7656 433.82812Q780.2656 433.125 780.2656 431.01562Q780.2656 428.89062 779.7656 428.20312Q779.28125 427.5 778.53125 427.5Q777.8125 427.5 777.375 428.10938Q776.8281 428.89062 776.8281 431.01562Z" fill-rule="nonzero"/><path fill="#f0f6fc" d="M26.171875 43.75L26.171875 29.4375L30.5 29.4375L33.09375 39.203125L35.65625 29.4375L40.0 29.4375L40.0 43.75L37.3125 43.75L37.3125 32.484375L34.46875 43.75L31.6875 43.75L28.859375 32.484375L28.859375 43.75L26.171875 43.75ZM41.890625 33.375L44.8125 33.375L47.28125 40.734375L49.703125 33.375L52.546875 33.375L48.890625 43.359375L48.234375 45.171875Q47.875 46.078125 47.546875 46.546875Q47.21875 47.03125 46.796875 47.328125Q46.375 47.625 45.75 47.78125Q45.125 47.953125 44.34375 47.953125Q43.5625 47.953125 42.796875 47.796875L42.546875 45.640625Q43.203125 45.765625 43.71875 45.765625Q44.671875 45.765625 45.125 45.203125Q45.59375 44.65625 45.828125 43.78125L41.890625 33.375ZM60.1875 40.453125L62.921875 40.90625Q62.40625 42.40625 61.265625 43.203125Q60.125 43.984375 58.421875 43.984375Q55.703125 43.984375 54.40625 42.21875Q53.390625 40.796875 53.390625 38.640625Q53.390625 36.0625 54.734375 34.609375Q56.078125 33.140625 58.140625 33.140625Q60.453125 33.140625 61.78125 34.671875Q63.125 36.203125 63.078125 39.359375L56.203125 39.359375Q56.234375 40.578125 56.859375 41.265625Q57.5 41.9375 58.4375 41.9375Q59.09375 41.9375 59.53125 41.59375Q59.96875 41.234375 60.1875 40.453125ZM60.34375 37.671875Q60.3125 36.484375 59.71875 35.875Q59.140625 35.25 58.3125 35.25Q57.40625 35.25 56.828125 35.890625Q56.234375 36.546875 56.25 37.671875L60.34375 37.671875ZM65.1875 43.75L65.1875 29.4375L67.9375 29.4375L67.9375 43.75L65.1875 43.75ZM71.1875 31.96875L71.1875 29.4375L73.9375 29.4375L73.9375 31.96875L71.1875 31.96875ZM71.1875 43.75L71.1875 33.375L73.9375 33.375L73.9375 43.75L71.1875 43.75ZM86.625 43.75L83.875 43.75L83.875 38.453125Q83.875 36.78125 83.703125 36.296875Q83.53125 35.796875 83.125 35.53125Q82.734375 35.25 82.171875 35.25Q81.46875 35.25 80.890625 35.640625Q80.328125 36.03125 80.109375 36.671875Q79.90625 37.3125 79.90625 39.046875L79.90625 43.75L77.171875 43.75L77.171875 33.375L79.71875 33.375L79.71875 34.90625Q81.078125 33.140625 83.140625 33.140625Q84.046875 33.140625 84.796875 33.46875Q85.546875 33.796875 85.921875 34.3125Q86.3125 34.8125 86.46875 35.46875Q86.625 36.109375 86.625 37.296875L86.625 43.75ZM95.203125 43.75L95.203125 29.4375L99.84375 29.4375Q102.484375 29.4375 103.28125 29.640625Q104.515625 29.96875 105.34375 31.046875Q106.171875 32.125 106.171875 33.84375Q106.171875 35.15625 105.6875 36.0625Q105.21875 36.953125 104.46875 37.46875Q103.734375 37.984375 102.984375 38.140625Q101.9375 38.34375 99.984375 38.34375L98.09375 38.34375L98.09375 43.75L95.203125 43.75ZM98.09375 31.859375L98.09375 35.921875L99.671875 35.921875Q101.390625 35.921875 101.96875 35.703125Q102.546875 35.46875 102.859375 35.0Q103.1875 34.515625 103.1875 33.875Q103.1875 33.09375 102.734375 32.59375Q102.28125 32.078125 101.578125 31.953125Q101.0625 31.859375 99.5 31.859375L98.09375 31.859375ZM114.1875 40.453125L116.921875 40.90625Q116.40625 42.40625 115.265625 43.203125Q114.125 43.984375 112.421875 43.984375Q109.703125 43.984375 108.40625 42.21875Q107.390625 40.796875 107.390625 38.640625Q107.390625 36.0625 108.734375 34.609375Q110.078125 33.140625 112.140625 33.140625Q114.453125 33.140625 115.78125 34.671875Q117.125 36.203125 117.078125 39.359375L110.203125 39.359375Q110.234375 40.578125 110.859375 41.265625Q111.5 41.9375 112.4375 41.9375Q113.09375 41.9375 113.53125 41.59375Q113.96875 41.234375 114.1875 40.453125ZM114.34375 37.671875Q114.3125 36.484375 113.71875 35.875Q113.140625 35.25 112.3125 35.25Q111.40625 35.25 110.828125 35.890625Q110.234375 36.546875 110.25 37.671875L114.34375 37.671875ZM121.8125 43.75L119.0625 43.75L119.0625 33.375L121.625 33.375L121.625 34.859375Q122.265625 33.8125 122.78125 33.484375Q123.3125 33.140625 123.984375 33.140625Q124.921875 33.140625 125.78125 33.65625L124.9375 36.046875Q124.25 35.609375 123.65625 35.609375Q123.078125 35.609375 122.671875 35.921875Q122.265625 36.234375 122.03125 37.078125Q121.8125 37.90625 121.8125 40.546875L121.8125 43.75ZM125.984375 33.375L127.515625 33.375L127.515625 32.59375Q127.515625 31.28125 127.78125 30.640625Q128.0625 30.0 128.8125 29.59375Q129.5625 29.1875 130.70312 29.1875Q131.875 29.1875 133.0 29.546875L132.625 31.453125Q131.96875 31.296875 131.35938 31.296875Q130.76562 31.296875 130.5 31.578125Q130.25 31.859375 130.25 32.640625L130.25 33.375L132.29688 33.375L132.29688 35.53125L130.25 35.53125L130.25 43.75L127.515625 43.75L127.515625 35.53125L125.984375 35.53125L125.984375 33.375ZM133.54688 38.421875Q133.54688 37.046875 134.21875 35.765625Q134.90625 34.484375 136.14062 33.8125Q137.375 33.140625 138.89062 33.140625Q141.25 33.140625 142.75 34.671875Q144.25 36.203125 144.25 38.53125Q144.25 40.890625 142.73438 42.4375Q141.21875 43.984375 138.90625 43.984375Q137.48438 43.984375 136.1875 43.34375Q134.90625 42.6875 134.21875 41.453125Q133.54688 40.203125 133.54688 38.421875ZM136.35938 38.5625Q136.35938 40.109375 137.09375 40.9375Q137.82812 41.75 138.90625 41.75Q139.98438 41.75 140.70312 40.9375Q141.4375 40.109375 141.4375 38.546875Q141.4375 37.015625 140.70312 36.203125Q139.98438 35.375 138.90625 35.375Q137.82812 35.375 137.09375 36.203125Q136.35938 37.015625 136.35938 38.5625ZM148.8125 43.75L146.0625 43.75L146.0625 33.375L148.625 33.375L148.625 34.859375Q149.26562 33.8125 149.78125 33.484375Q150.3125 33.140625 150.98438 33.140625Q151.92188 33.140625 152.78125 33.65625L151.9375 36.046875Q151.25 35.609375 150.65625 35.609375Q150.07812 35.609375 149.67188 35.921875Q149.26562 36.234375 149.03125 37.078125Q148.8125 37.90625 148.8125 40.546875L148.8125 43.75ZM153.98438 33.375L156.51562 33.375L156.51562 34.796875Q157.875 33.140625 159.75 33.140625Q160.73438 33.140625 161.46875 33.5625Q162.20312 33.96875 162.67188 34.796875Q163.35938 33.96875 164.14062 33.5625Q164.9375 33.140625 165.84375 33.140625Q166.98438 33.140625 167.76562 33.609375Q168.5625 34.078125 168.95312 34.96875Q169.23438 35.640625 169.23438 37.125L169.23438 43.75L166.48438 43.75L166.48438 37.828125Q166.48438 36.28125 166.20312 35.828125Q165.82812 35.25 165.03125 35.25Q164.45312 35.25 163.9375 35.609375Q163.4375 35.953125 163.21875 36.625Q163.0 37.296875 163.0 38.765625L163.0 43.75L160.25 43.75L160.25 38.0625Q160.25 36.546875 160.09375 36.109375Q159.95312 35.671875 159.64062 35.46875Q159.34375 35.25 158.8125 35.25Q158.1875 35.25 157.67188 35.59375Q157.17188 35.921875 156.9375 36.578125Q156.71875 37.21875 156.71875 38.703125L156.71875 43.75L153.98438 43.75L153.98438 33.375ZM174.23438 36.546875L171.75 36.09375Q172.17188 34.59375 173.1875 33.875Q174.21875 33.140625 176.23438 33.140625Q178.07812 33.140625 178.96875 33.578125Q179.875 34.015625 180.23438 34.6875Q180.60938 35.34375 180.60938 37.140625L180.57812 40.34375Q180.57812 41.703125 180.70312 42.359375Q180.84375 43.0 181.20312 43.75L178.48438 43.75Q178.375 43.46875 178.21875 42.9375Q178.15625 42.6875 178.125 42.609375Q177.42188 43.296875 176.60938 43.640625Q175.8125 43.984375 174.90625 43.984375Q173.3125 43.984375 172.39062 43.125Q171.46875 42.25 171.46875 40.921875Q171.46875 40.03125 171.875 39.34375Q172.29688 38.65625 173.04688 38.296875Q173.8125 37.921875 175.25 37.65625Q177.17188 37.296875 177.90625 36.984375L177.90625 36.703125Q177.90625 35.921875 177.51562 35.59375Q177.125 35.25 176.04688 35.25Q175.3125 35.25 174.89062 35.53125Q174.48438 35.8125 174.23438 36.546875ZM177.90625 38.765625Q177.375 38.9375 176.23438 39.1875Q175.09375 39.4375 174.75 39.671875Q174.20312 40.046875 174.20312 40.640625Q174.20312 41.203125 174.625 41.625Q175.0625 42.046875 175.73438 42.046875Q176.46875 42.046875 177.14062 41.5625Q177.64062 41.1875 177.79688 40.65625Q177.90625 40.296875 177.90625 39.3125L177.90625 38.765625ZM192.625 43.75L189.875 43.75L189.875 38.453125Q189.875 36.78125 189.70312 36.296875Q189.53125 35.796875 189.125 35.53125Q188.73438 35.25 188.17188 35.25Q187.46875 35.25 186.89062 35.640625Q186.32812 36.03125 186.10938 36.671875Q185.90625 37.3125 185.90625 39.046875L185.90625 43.75L183.17188 43.75L183.17188 33.375L185.71875 33.375L185.71875 34.90625Q187.07812 33.140625 189.14062 33.140625Q190.04688 33.140625 190.79688 33.46875Q191.54688 33.796875 191.92188 34.3125Q192.3125 34.8125 192.46875 35.46875Q192.625 36.109375 192.625 37.296875L192.625 43.75ZM204.23438 36.4375L201.53125 36.9375Q201.39062 36.125 200.90625 35.71875Q200.42188 35.296875 199.65625 35.296875Q198.625 35.296875 198.01562 36.015625Q197.40625 36.71875 197.40625 38.375Q197.40625 40.21875 198.01562 40.984375Q198.64062 41.75 199.6875 41.75Q200.46875 41.75 200.96875 41.3125Q201.46875 40.859375 201.67188 39.78125L204.35938 40.234375Q203.95312 42.09375 202.75 43.046875Q201.5625 43.984375 199.5625 43.984375Q197.28125 43.984375 195.92188 42.546875Q194.57812 41.109375 194.57812 38.578125Q194.57812 36.0 195.9375 34.578125Q197.29688 33.140625 199.60938 33.140625Q201.5 33.140625 202.60938 33.96875Q203.73438 34.78125 204.23438 36.4375ZM212.1875 40.453125L214.92188 40.90625Q214.40625 42.40625 213.26562 43.203125Q212.125 43.984375 210.42188 43.984375Q207.70312 43.984375 206.40625 42.21875Q205.39062 40.796875 205.39062 38.640625Q205.39062 36.0625 206.73438 34.609375Q208.07812 33.140625 210.14062 33.140625Q212.45312 33.140625 213.78125 34.671875Q215.125 36.203125 215.07812 39.359375L208.20312 39.359375Q208.23438 40.578125 208.85938 41.265625Q209.5 41.9375 210.4375 41.9375Q211.09375 41.9375 211.53125 41.59375Q211.96875 41.234375 212.1875 40.453125ZM212.34375 37.671875Q212.3125 36.484375 211.71875 35.875Q211.14062 35.25 210.3125 35.25Q209.40625 35.25 208.82812 35.890625Q208.23438 36.546875 208.25 37.671875L212.34375 37.671875ZM226.85938 43.75L221.73438 29.4375L224.875 29.4375L228.5 40.03125L232.0 29.4375L235.07812 29.4375L229.9375 43.75L226.85938 43.75ZM235.21875 40.796875L237.96875 40.375Q238.15625 41.171875 238.6875 41.59375Q239.21875 42.0 240.1875 42.0Q241.25 42.0 241.79688 41.609375Q242.15625 41.34375 242.15625 40.875Q242.15625 40.5625 241.95312 40.359375Q241.75 40.171875 241.04688 40.0Q237.71875 39.265625 236.82812 38.65625Q235.59375 37.828125 235.59375 36.328125Q235.59375 34.984375 236.65625 34.0625Q237.73438 33.140625 239.96875 33.140625Q242.09375 33.140625 243.125 33.84375Q244.17188 34.53125 244.5625 35.890625L241.96875 36.359375Q241.79688 35.765625 241.32812 35.4375Q240.875 35.109375 240.01562 35.109375Q238.9375 35.109375 238.46875 35.421875Q238.15625 35.640625 238.15625 35.96875Q238.15625 36.265625 238.42188 36.46875Q238.79688 36.75 240.98438 37.25Q243.17188 37.75 244.04688 38.46875Q244.90625 39.203125 244.90625 40.5Q244.90625 41.9375 243.71875 42.96875Q242.53125 43.984375 240.1875 43.984375Q238.07812 43.984375 236.82812 43.125Q235.59375 42.265625 235.21875 40.796875ZM247.1875 43.75L247.1875 41.0L249.9375 41.0L249.9375 43.75L247.1875 43.75ZM259.20312 43.75L259.20312 29.4375L263.84375 29.4375Q266.48438 29.4375 267.28125 29.640625Q268.51562 29.96875 269.34375 31.046875Q270.17188 32.125 270.17188 33.84375Q270.17188 35.15625 269.6875 36.0625Q269.21875 36.953125 268.46875 37.46875Q267.73438 37.984375 266.98438 38.140625Q265.9375 38.34375 263.98438 38.34375L262.09375 38.34375L262.09375 43.75L259.20312 43.75ZM262.09375 31.859375L262.09375 35.921875L263.67188 35.921875Q265.39062 35.921875 265.96875 35.703125Q266.54688 35.46875 266.85938 35.0Q267.1875 34.515625 267.1875 33.875Q267.1875 33.09375 266.73438 32.59375Q266.28125 32.078125 265.57812 31.953125Q265.0625 31.859375 263.5 31.859375L262.09375 31.859375ZM274.8125 43.75L272.0625 43.75L272.0625 33.375L274.625 33.375L274.625 34.859375Q275.26562 33.8125 275.78125 33.484375Q276.3125 33.140625 276.98438 33.140625Q277.92188 33.140625 278.78125 33.65625L277.9375 36.046875Q277.25 35.609375 276.65625 35.609375Q276.07812 35.609375 275.67188 35.921875Q275.26562 36.234375 275.03125 37.078125Q274.8125 37.90625 274.8125 40.546875L274.8125 43.75ZM279.54688 38.421875Q279.54688 37.046875 280.21875 35.765625Q280.90625 34.484375 282.14062 33.8125Q283.375 33.140625 284.89062 33.140625Q287.25 33.140625 288.75 34.671875Q290.25 36.203125 290.25 38.53125Q290.25 40.890625 288.73438 42.4375Q287.21875 43.984375 284.90625 43.984375Q283.48438 43.984375 282.1875 43.34375Q280.90625 42.6875 280.21875 41.453125Q279.54688 40.203125 279.54688 38.421875ZM282.35938 38.5625Q282.35938 40.109375 283.09375 40.9375Q283.82812 41.75 284.90625 41.75Q285.98438 41.75 286.70312 40.9375Q287.4375 40.109375 287.4375 38.546875Q287.4375 37.015625 286.70312 36.203125Q285.98438 35.375 284.90625 35.375Q283.82812 35.375 283.09375 36.203125Q282.35938 37.015625 282.35938 38.5625ZM296.9375 33.375L296.9375 35.5625L295.0625 35.5625L295.0625 39.75Q295.0625 41.015625 295.10938 41.234375Q295.17188 41.4375 295.35938 41.578125Q295.5625 41.703125 295.82812 41.703125Q296.20312 41.703125 296.9375 41.4375L297.17188 43.578125Q296.20312 43.984375 295.0 43.984375Q294.25 43.984375 293.65625 43.734375Q293.0625 43.484375 292.78125 43.09375Q292.51562 42.6875 292.40625 42.015625Q292.3125 41.546875 292.3125 40.09375L292.3125 35.5625L291.04688 35.5625L291.04688 33.375L292.3125 33.375L292.3125 31.3125L295.0625 29.71875L295.0625 33.375L296.9375 33.375ZM298.54688 38.421875Q298.54688 37.046875 299.21875 35.765625Q299.90625 34.484375 301.14062 33.8125Q302.375 33.140625 303.89062 33.140625Q306.25 33.140625 307.75 34.671875Q309.25 36.203125 309.25 38.53125Q309.25 40.890625 307.73438 42.4375Q306.21875 43.984375 303.90625 43.984375Q302.48438 43.984375 301.1875 43.34375Q299.90625 42.6875 299.21875 41.453125Q298.54688 40.203125 298.54688 38.421875ZM301.35938 38.5625Q301.35938 40.109375 302.09375 40.9375Q302.82812 41.75 303.90625 41.75Q304.98438 41.75 305.70312 40.9375Q306.4375 40.109375 306.4375 38.546875Q306.4375 37.015625 305.70312 36.203125Q304.98438 35.375 303.90625 35.375Q302.82812 35.375 302.09375 36.203125Q301.35938 37.015625 301.35938 38.5625ZM311.0625 43.75L311.0625 29.4375L313.8125 29.4375L313.8125 34.59375Q315.07812 33.140625 316.82812 33.140625Q318.71875 33.140625 319.95312 34.515625Q321.20312 35.890625 321.20312 38.453125Q321.20312 41.109375 319.9375 42.546875Q318.67188 43.984375 316.85938 43.984375Q315.96875 43.984375 315.10938 43.546875Q314.25 43.09375 313.625 42.21875L313.625 43.75L311.0625 43.75ZM313.79688 38.34375Q313.79688 39.953125 314.29688 40.71875Q315.01562 41.8125 316.20312 41.8125Q317.10938 41.8125 317.75 41.046875Q318.39062 40.265625 318.39062 38.59375Q318.39062 36.8125 317.73438 36.03125Q317.09375 35.25 316.09375 35.25Q315.10938 35.25 314.45312 36.015625Q313.79688 36.78125 313.79688 38.34375ZM330.01562 43.75L330.01562 42.203125Q329.45312 43.03125 328.51562 43.515625Q327.59375 43.984375 326.57812 43.984375Q325.53125 43.984375 324.70312 43.53125Q323.875 43.0625 323.5 42.234375Q323.125 41.40625 323.125 39.9375L323.125 33.375L325.875 33.375L325.875 38.140625Q325.875 40.328125 326.01562 40.828125Q326.17188 41.3125 326.5625 41.609375Q326.96875 41.890625 327.59375 41.890625Q328.29688 41.890625 328.84375 41.515625Q329.40625 41.125 329.60938 40.5625Q329.8125 39.984375 329.8125 37.75L329.8125 33.375L332.5625 33.375L332.5625 43.75L330.01562 43.75ZM333.98438 33.375L335.51562 33.375L335.51562 32.59375Q335.51562 31.28125 335.78125 30.640625Q336.0625 30.0 336.8125 29.59375Q337.5625 29.1875 338.70312 29.1875Q339.875 29.1875 341.0 29.546875L340.625 31.453125Q339.96875 31.296875 339.35938 31.296875Q338.76562 31.296875 338.5 31.578125Q338.25 31.859375 338.25 32.640625L338.25 33.375L340.29688 33.375L340.29688 35.53125L338.25 35.53125L338.25 43.75L335.51562 43.75L335.51562 35.53125L333.98438 35.53125L333.98438 33.375ZM350.23438 36.546875L347.75 36.09375Q348.17188 34.59375 349.1875 33.875Q350.21875 33.140625 352.23438 33.140625Q354.07812 33.140625 354.96875 33.578125Q355.875 34.015625 356.23438 34.6875Q356.60938 35.34375 356.60938 37.140625L356.57812 40.34375Q356.57812 41.703125 356.70312 42.359375Q356.84375 43.0 357.20312 43.75L354.48438 43.75Q354.375 43.46875 354.21875 42.9375Q354.15625 42.6875 354.125 42.609375Q353.42188 43.296875 352.60938 43.640625Q351.8125 43.984375 350.90625 43.984375Q349.3125 43.984375 348.39062 43.125Q347.46875 42.25 347.46875 40.921875Q347.46875 40.03125 347.875 39.34375Q348.29688 38.65625 349.04688 38.296875Q349.8125 37.921875 351.25 37.65625Q353.17188 37.296875 353.90625 36.984375L353.90625 36.703125Q353.90625 35.921875 353.51562 35.59375Q353.125 35.25 352.04688 35.25Q351.3125 35.25 350.89062 35.53125Q350.48438 35.8125 350.23438 36.546875ZM353.90625 38.765625Q353.375 38.9375 352.23438 39.1875Q351.09375 39.4375 350.75 39.671875Q350.20312 40.046875 350.20312 40.640625Q350.20312 41.203125 350.625 41.625Q351.0625 42.046875 351.73438 42.046875Q352.46875 42.046875 353.14062 41.5625Q353.64062 41.1875 353.79688 40.65625Q353.90625 40.296875 353.90625 39.3125L353.90625 38.765625ZM368.625 43.75L365.875 43.75L365.875 38.453125Q365.875 36.78125 365.70312 36.296875Q365.53125 35.796875 365.125 35.53125Q364.73438 35.25 364.17188 35.25Q363.46875 35.25 362.89062 35.640625Q362.32812 36.03125 362.10938 36.671875Q361.90625 37.3125 361.90625 39.046875L361.90625 43.75L359.17188 43.75L359.17188 33.375L361.71875 33.375L361.71875 34.90625Q363.07812 33.140625 365.14062 33.140625Q366.04688 33.140625 366.79688 33.46875Q367.54688 33.796875 367.92188 34.3125Q368.3125 34.8125 368.46875 35.46875Q368.625 36.109375 368.625 37.296875L368.625 43.75ZM380.70312 43.75L378.15625 43.75L378.15625 42.21875Q377.51562 43.109375 376.64062 43.546875Q375.78125 43.984375 374.90625 43.984375Q373.125 43.984375 371.84375 42.546875Q370.57812 41.109375 370.57812 38.53125Q370.57812 35.890625 371.8125 34.515625Q373.04688 33.140625 374.95312 33.140625Q376.6875 33.140625 377.95312 34.59375L377.95312 29.4375L380.70312 29.4375L380.70312 43.75ZM373.375 38.34375Q373.375 40.0 373.82812 40.734375Q374.5 41.8125 375.6875 41.8125Q376.64062 41.8125 377.29688 41.015625Q377.96875 40.203125 377.96875 38.609375Q377.96875 36.8125 377.3125 36.03125Q376.67188 35.25 375.67188 35.25Q374.6875 35.25 374.03125 36.03125Q373.375 36.796875 373.375 38.34375ZM389.21875 43.75L389.21875 29.4375L399.04688 29.4375L399.04688 31.859375L392.10938 31.859375L392.10938 35.25L398.09375 35.25L398.09375 37.671875L392.10938 37.671875L392.10938 43.75L389.21875 43.75ZM401.1875 43.75L401.1875 29.4375L403.9375 29.4375L403.9375 43.75L401.1875 43.75ZM409.23438 36.546875L406.75 36.09375Q407.17188 34.59375 408.1875 33.875Q409.21875 33.140625 411.23438 33.140625Q413.07812 33.140625 413.96875 33.578125Q414.875 34.015625 415.23438 34.6875Q415.60938 35.34375 415.60938 37.140625L415.57812 40.34375Q415.57812 41.703125 415.70312 42.359375Q415.84375 43.0 416.20312 43.75L413.48438 43.75Q413.375 43.46875 413.21875 42.9375Q413.15625 42.6875 413.125 42.609375Q412.42188 43.296875 411.60938 43.640625Q410.8125 43.984375 409.90625 43.984375Q408.3125 43.984375 407.39062 43.125Q406.46875 42.25 406.46875 40.921875Q406.46875 40.03125 406.875 39.34375Q407.29688 38.65625 408.04688 38.296875Q408.8125 37.921875 410.25 37.65625Q412.17188 37.296875 412.90625 36.984375L412.90625 36.703125Q412.90625 35.921875 412.51562 35.59375Q412.125 35.25 411.04688 35.25Q410.3125 35.25 409.89062 35.53125Q409.48438 35.8125 409.23438 36.546875ZM412.90625 38.765625Q412.375 38.9375 411.23438 39.1875Q410.09375 39.4375 409.75 39.671875Q409.20312 40.046875 409.20312 40.640625Q409.20312 41.203125 409.625 41.625Q410.0625 42.046875 410.73438 42.046875Q411.46875 42.046875 412.14062 41.5625Q412.64062 41.1875 412.79688 40.65625Q412.90625 40.296875 412.90625 39.3125L412.90625 38.765625ZM422.9375 33.375L422.9375 35.5625L421.0625 35.5625L421.0625 39.75Q421.0625 41.015625 421.10938 41.234375Q421.17188 41.4375 421.35938 41.578125Q421.5625 41.703125 421.82812 41.703125Q422.20312 41.703125 422.9375 41.4375L423.17188 43.578125Q422.20312 43.984375 421.0 43.984375Q420.25 43.984375 419.65625 43.734375Q419.0625 43.484375 418.78125 43.09375Q418.51562 42.6875 418.40625 42.015625Q418.3125 41.546875 418.3125 40.09375L418.3125 35.5625L417.04688 35.5625L417.04688 33.375L418.3125 33.375L418.3125 31.3125L421.0625 29.71875L421.0625 33.375L422.9375 33.375ZM425.21875 29.4375L430.9375 29.4375Q432.64062 29.4375 433.46875 29.578125Q434.3125 29.71875 434.96875 30.171875Q435.625 30.609375 436.0625 31.359375Q436.5 32.109375 436.5 33.03125Q436.5 34.046875 435.95312 34.890625Q435.42188 35.71875 434.5 36.140625Q435.79688 36.515625 436.5 37.4375Q437.20312 38.359375 437.20312 39.59375Q437.20312 40.578125 436.75 41.5Q436.29688 42.421875 435.51562 42.984375Q434.73438 43.53125 433.57812 43.65625Q432.85938 43.734375 430.09375 43.75L425.21875 43.75L425.21875 29.4375ZM428.10938 31.8125L428.10938 35.125L430.0 35.125Q431.6875 35.125 432.09375 35.078125Q432.84375 34.984375 433.26562 34.5625Q433.6875 34.140625 433.6875 33.453125Q433.6875 32.78125 433.3125 32.375Q432.95312 31.953125 432.23438 31.859375Q431.8125 31.8125 429.76562 31.8125L428.10938 31.8125ZM428.10938 37.515625L428.10938 41.34375L430.78125 41.34375Q432.34375 41.34375 432.76562 41.25Q433.40625 41.125 433.8125 40.671875Q434.21875 40.21875 434.21875 39.46875Q434.21875 38.8125 433.90625 38.375Q433.59375 37.921875 433.0 37.71875Q432.40625 37.515625 430.4375 37.515625L428.10938 37.515625ZM446.01562 43.75L446.01562 42.203125Q445.45312 43.03125 444.51562 43.515625Q443.59375 43.984375 442.57812 43.984375Q441.53125 43.984375 440.70312 43.53125Q439.875 43.0625 439.5 42.234375Q439.125 41.40625 439.125 39.9375L439.125 33.375L441.875 33.375L441.875 38.140625Q441.875 40.328125 442.01562 40.828125Q442.17188 41.3125 442.5625 41.609375Q442.96875 41.890625 443.59375 41.890625Q444.29688 41.890625 444.84375 41.515625Q445.40625 41.125 445.60938 40.5625Q445.8125 39.984375 445.8125 37.75L445.8125 33.375L448.5625 33.375L448.5625 43.75L446.01562 43.75ZM449.98438 33.375L451.51562 33.375L451.51562 32.59375Q451.51562 31.28125 451.78125 30.640625Q452.0625 30.0 452.8125 29.59375Q453.5625 29.1875 454.70312 29.1875Q455.875 29.1875 457.0 29.546875L456.625 31.453125Q455.96875 31.296875 455.35938 31.296875Q454.76562 31.296875 454.5 31.578125Q454.25 31.859375 454.25 32.640625L454.25 33.375L456.29688 33.375L456.29688 35.53125L454.25 35.53125L454.25 43.75L451.51562 43.75L451.51562 35.53125L449.98438 35.53125L449.98438 33.375ZM456.98438 33.375L458.51562 33.375L458.51562 32.59375Q458.51562 31.28125 458.78125 30.640625Q459.0625 30.0 459.8125 29.59375Q460.5625 29.1875 461.70312 29.1875Q462.875 29.1875 464.0 29.546875L463.625 31.453125Q462.96875 31.296875 462.35938 31.296875Q461.76562 31.296875 461.5 31.578125Q461.25 31.859375 461.25 32.640625L461.25 33.375L463.29688 33.375L463.29688 35.53125L461.25 35.53125L461.25 43.75L458.51562 43.75L458.51562 35.53125L456.98438 35.53125L456.98438 33.375ZM471.1875 40.453125L473.92188 40.90625Q473.40625 42.40625 472.26562 43.203125Q471.125 43.984375 469.42188 43.984375Q466.70312 43.984375 465.40625 42.21875Q464.39062 40.796875 464.39062 38.640625Q464.39062 36.0625 465.73438 34.609375Q467.07812 33.140625 469.14062 33.140625Q471.45312 33.140625 472.78125 34.671875Q474.125 36.203125 474.07812 39.359375L467.20312 39.359375Q467.23438 40.578125 467.85938 41.265625Q468.5 41.9375 469.4375 41.9375Q470.09375 41.9375 470.53125 41.59375Q470.96875 41.234375 471.1875 40.453125ZM471.34375 37.671875Q471.3125 36.484375 470.71875 35.875Q470.14062 35.25 469.3125 35.25Q468.40625 35.25 467.82812 35.890625Q467.23438 36.546875 467.25 37.671875L471.34375 37.671875ZM478.8125 43.75L476.0625 43.75L476.0625 33.375L478.625 33.375L478.625 34.859375Q479.26562 33.8125 479.78125 33.484375Q480.3125 33.140625 480.98438 33.140625Q481.92188 33.140625 482.78125 33.65625L481.9375 36.046875Q481.25 35.609375 480.65625 35.609375Q480.07812 35.609375 479.67188 35.921875Q479.26562 36.234375 479.03125 37.078125Q478.8125 37.90625 478.8125 40.546875L478.8125 43.75ZM483.21875 40.796875L485.96875 40.375Q486.15625 41.171875 486.6875 41.59375Q487.21875 42.0 488.1875 42.0Q489.25 42.0 489.79688 41.609375Q490.15625 41.34375 490.15625 40.875Q490.15625 40.5625 489.95312 40.359375Q489.75 40.171875 489.04688 40.0Q485.71875 39.265625 484.82812 38.65625Q483.59375 37.828125 483.59375 36.328125Q483.59375 34.984375 484.65625 34.0625Q485.73438 33.140625 487.96875 33.140625Q490.09375 33.140625 491.125 33.84375Q492.17188 34.53125 492.5625 35.890625L489.96875 36.359375Q489.79688 35.765625 489.32812 35.4375Q488.875 35.109375 488.01562 35.109375Q486.9375 35.109375 486.46875 35.421875Q486.15625 35.640625 486.15625 35.96875Q486.15625 36.265625 486.42188 36.46875Q486.79688 36.75 488.98438 37.25Q491.17188 37.75 492.04688 38.46875Q492.90625 39.203125 492.90625 40.5Q492.90625 41.9375 491.71875 42.96875Q490.53125 43.984375 488.1875 43.984375Q486.07812 43.984375 484.82812 43.125Q483.59375 42.265625 483.21875 40.796875Z" fill-rule="nonzero"/></svg>