<svg version="1.1" viewBox="0.0 0.0 800.0 495.0" fill="none" stroke="none" stroke-linecap="square" stroke-miterlimit="10" width="800" height="495" xmlns:xlink="http://www.w3.org/1999/xlink" xmlns="http://www.w3.org/2000/svg"><path fill="#0d1117" d="M0 0L800.0 0L800.0 495.0L0 495.0L0 0Z" fill-rule="nonzero"/><path stroke="#dcdddd" stroke-width="1.0" stroke-linecap="butt" d="M112.5 65.5L112.5 418.5" fill-rule="nonzero"/><path stroke="#414449" stroke-width="1.0" stroke-linecap="butt" d="M278.5 65.5L278.5 418.5" fill-rule="nonzero"/><path stroke="#414449" stroke-width="1.0" stroke-linecap="butt" d="M444.5 65.5L444.5 418.5" fill-rule="nonzero"/><path stroke="#414449" stroke-width="1.0" stroke-linecap="butt" d="M609.5 65.5L609.5 418.5" fill-rule="nonzero"/><path stroke="#414449" stroke-width="1.0" stroke-linecap="butt" d="M775.5 65.5L775.5 418.5" fill-rule="nonzero"/><clipPath id="id_0"><path d="M112.75 65.25L775.25 65.25L775.25 418.25L112.75 418.25L112.75 65.25Z" clip-rule="nonzero"/></clipPath><path stroke="#000000" stroke-width="2.0" stroke-linecap="butt" stroke-opacity="0.0" clip-path="url(#id_0)" d="M113.0 147.0L113.0 94.0L186.0 94.0C187.10457 94.0 188.0 94.89543 188.0 96.0L188.0 145.0C188.0 146.10457 187.10457 147.0 186.0 147.0Z" fill-rule="nonzero"/><path fill="#d5a6bd" clip-path="url(#id_0)" d="M113.0 147.0L113.0 94.0L186.0 94.0C187.10457 94.0 188.0 94.89543 188.0 96.0L188.0 145.0C188.0 146.10457 187.10457 147.0 186.0 147.0Z" fill-rule="nonzero"/><path stroke="#000000" stroke-width="2.0" stroke-linecap="butt" stroke-opacity="0.0" clip-path="url(#id_0)" d="M113.0 228.0L113.0 175.0L190.0 175.0C191.10457 175.0 192.0 175.89543 192.0 177.0L192.0 226.0C192.0 227.10457 191.10457 228.0 190.0 228.0Z" fill-rule="nonzero"/><path fill="#8e7cc3" clip-path="url(#id_0)" d="M113.0 228.0L113.0 175.0L190.0 175.0C191.10457 175.0 192.0 175.89543 192.0 177.0L192.0 226.0C192.0 227.10457 191.10457 228.0 190.0 228.0Z" fill-rule="nonzero"/><path stroke="#000000" stroke-width="2.0" stroke-linecap="butt" stroke-opacity="0.0" clip-path="url(#id_0)" d="M113.0 309.0L113.0 256.0L378.0 256.0C379.10458 256.0 380.0 256.89542 380.0 258.0L380.0 307.0C380.0 308.10458 379.10458 309.0 378.0 309.0Z" fill-rule="nonzero"/><path fill="#6fa8dc" clip-path="url(#id_0)" d="M113.0 309.0L113.0 256.0L378.0 256.0C379.10458 256.0 380.0 256.89542 380.0 258.0L380.0 307.0C380.0 308.10458 379.10458 309.0 378.0 309.0Z" fill-rule="nonzero"/><path stroke="#000000" stroke-width="2.0" stroke-linecap="butt" stroke-opacity="0.0" clip-path="url(#id_0)" d="M113.0 390.0L113.0 337.0L653.0 337.0C654.10455 337.0 655.0 337.89542 655.0 339.0L655.0 388.0C655.0 389.10458 654.10455 390.0 653.0 390.0Z" fill-rule="nonzero"/><path fill="#dd7e6b" clip-path="url(#id_0)" d="M113.0 390.0L113.0 337.0L653.0 337.0C654.10455 337.0 655.0 337.89542 655.0 339.0L655.0 388.0C655.0 389.10458 654.10455 390.0 653.0 390.0Z" fill-rule="nonzero"/><path fill="#f6f8f9" d="M379.79688 467.25L379.79688 461.03125L380.73438 461.03125L380.73438 461.90625Q381.42188 460.89062 382.71875 460.89062Q383.28125 460.89062 383.75 461.09375Q384.23438 461.29688 384.46875 461.625Q384.70312 461.95312 384.79688 462.39062Q384.84375 462.6875 384.84375 463.42188L384.84375 467.25L383.79688 467.25L383.79688 463.46875Q383.79688 462.8125 383.67188 462.5Q383.54688 462.1875 383.23438 462.0Q382.92188 461.79688 382.5 461.79688Q381.82812 461.79688 381.32812 462.23438Q380.84375 462.65625 380.84375 463.84375L380.84375 467.25L379.79688 467.25ZM386.375 465.39062L387.40625 465.23438Q387.5 465.85938 387.89062 466.1875Q388.29688 466.51562 389.03125 466.51562Q389.75 466.51562 390.09375 466.23438Q390.45312 465.9375 390.45312 465.53125Q390.45312 465.17188 390.14062 464.96875Q389.92188 464.82812 389.0625 464.60938Q387.90625 464.3125 387.45312 464.10938Q387.01562 463.89062 386.78125 463.51562Q386.54688 463.14062 386.54688 462.67188Q386.54688 462.26562 386.73438 461.90625Q386.92188 461.54688 387.25 461.3125Q387.5 461.14062 387.92188 461.01562Q388.34375 460.89062 388.84375 460.89062Q389.5625 460.89062 390.10938 461.10938Q390.67188 461.3125 390.9375 461.67188Q391.20312 462.03125 391.29688 462.625L390.26562 462.76562Q390.20312 462.29688 389.85938 462.03125Q389.53125 461.75 388.90625 461.75Q388.1875 461.75 387.875 462.0Q387.5625 462.23438 387.5625 462.5625Q387.5625 462.76562 387.6875 462.92188Q387.82812 463.09375 388.09375 463.20312Q388.25 463.26562 389.03125 463.46875Q390.15625 463.78125 390.59375 463.96875Q391.03125 464.15625 391.28125 464.51562Q391.53125 464.875 391.53125 465.42188Q391.53125 465.95312 391.21875 466.42188Q390.92188 466.875 390.34375 467.14062Q389.76562 467.39062 389.03125 467.39062Q387.8125 467.39062 387.17188 466.89062Q386.54688 466.375 386.375 465.39062ZM395.79688 469.64062L395.79688 461.03125L396.75 461.03125L396.75 461.82812Q397.09375 461.35938 397.51562 461.125Q397.95312 460.89062 398.5625 460.89062Q399.35938 460.89062 399.96875 461.29688Q400.57812 461.70312 400.875 462.45312Q401.1875 463.20312 401.1875 464.09375Q401.1875 465.04688 400.84375 465.8125Q400.51562 466.57812 399.85938 466.98438Q399.20312 467.39062 398.48438 467.39062Q397.95312 467.39062 397.53125 467.17188Q397.10938 466.9375 396.84375 466.60938L396.84375 469.64062L395.79688 469.64062ZM396.75 464.17188Q396.75 465.375 397.23438 465.95312Q397.71875 466.51562 398.40625 466.51562Q399.10938 466.51562 399.60938 465.92188Q400.10938 465.32812 400.10938 464.07812Q400.10938 462.89062 399.625 462.3125Q399.14062 461.71875 398.45312 461.71875Q397.78125 461.71875 397.26562 462.34375Q396.75 462.96875 396.75 464.17188ZM407.04688 465.25L408.14062 465.375Q407.89062 466.32812 407.1875 466.85938Q406.48438 467.39062 405.40625 467.39062Q404.04688 467.39062 403.23438 466.54688Q402.4375 465.70312 402.4375 464.1875Q402.4375 462.625 403.25 461.76562Q404.0625 460.89062 405.34375 460.89062Q406.59375 460.89062 407.375 461.73438Q408.17188 462.57812 408.17188 464.125Q408.17188 464.21875 408.17188 464.40625L403.53125 464.40625Q403.59375 465.4375 404.10938 465.98438Q404.625 466.51562 405.40625 466.51562Q405.98438 466.51562 406.39062 466.21875Q406.8125 465.90625 407.04688 465.25ZM403.59375 463.54688L407.0625 463.54688Q407.0 462.75 406.67188 462.35938Q406.15625 461.75 405.35938 461.75Q404.625 461.75 404.125 462.23438Q403.64062 462.71875 403.59375 463.54688ZM409.78125 467.25L409.78125 461.03125L410.73438 461.03125L410.73438 461.96875Q411.09375 461.3125 411.39062 461.10938Q411.70312 460.89062 412.07812 460.89062Q412.60938 460.89062 413.15625 461.21875L412.79688 462.20312Q412.40625 461.96875 412.03125 461.96875Q411.67188 461.96875 411.39062 462.1875Q411.125 462.39062 411.01562 462.76562Q410.82812 463.32812 410.82812 463.98438L410.82812 467.25L409.78125 467.25ZM416.40625 464.14062Q416.40625 462.40625 417.35938 461.57812Q418.15625 460.89062 419.3125 460.89062Q420.59375 460.89062 421.40625 461.73438Q422.23438 462.5625 422.23438 464.04688Q422.23438 465.25 421.875 465.9375Q421.51562 466.625 420.8125 467.01562Q420.125 467.39062 419.3125 467.39062Q418.01562 467.39062 417.20312 466.5625Q416.40625 465.71875 416.40625 464.14062ZM417.48438 464.14062Q417.48438 465.32812 418.0 465.92188Q418.53125 466.51562 419.3125 466.51562Q420.10938 466.51562 420.625 465.92188Q421.14062 465.32812 421.14062 464.10938Q421.14062 462.95312 420.60938 462.35938Q420.09375 461.76562 419.3125 461.76562Q418.53125 461.76562 418.0 462.35938Q417.48438 462.9375 417.48438 464.14062ZM423.79688 469.64062L423.79688 461.03125L424.75 461.03125L424.75 461.82812Q425.09375 461.35938 425.51562 461.125Q425.95312 460.89062 426.5625 460.89062Q427.35938 460.89062 427.96875 461.29688Q428.57812 461.70312 428.875 462.45312Q429.1875 463.20312 429.1875 464.09375Q429.1875 465.04688 428.84375 465.8125Q428.51562 466.57812 427.85938 466.98438Q427.20312 467.39062 426.48438 467.39062Q425.95312 467.39062 425.53125 467.17188Q425.10938 466.9375 424.84375 466.60938L424.84375 469.64062L423.79688 469.64062ZM424.75 464.17188Q424.75 465.375 425.23438 465.95312Q425.71875 466.51562 426.40625 466.51562Q427.10938 466.51562 427.60938 465.92188Q428.10938 465.32812 428.10938 464.07812Q428.10938 462.89062 427.625 462.3125Q427.14062 461.71875 426.45312 461.71875Q425.78125 461.71875 425.26562 462.34375Q424.75 462.96875 424.75 464.17188ZM435.04688 465.25L436.14062 465.375Q435.89062 466.32812 435.1875 466.85938Q434.48438 467.39062 433.40625 467.39062Q432.04688 467.39062 431.23438 466.54688Q430.4375 465.70312 430.4375 464.1875Q430.4375 462.625 431.25 461.76562Q432.0625 460.89062 433.34375 460.89062Q434.59375 460.89062 435.375 461.73438Q436.17188 462.57812 436.17188 464.125Q436.17188 464.21875 436.17188 464.40625L431.53125 464.40625Q431.59375 465.4375 432.10938 465.98438Q432.625 466.51562 433.40625 466.51562Q433.98438 466.51562 434.39062 466.21875Q434.8125 465.90625 435.04688 465.25ZM431.59375 463.54688L435.0625 463.54688Q435.0 462.75 434.67188 462.35938Q434.15625 461.75 433.35938 461.75Q432.625 461.75 432.125 462.23438Q431.64062 462.71875 431.59375 463.54688ZM437.78125 467.25L437.78125 461.03125L438.73438 461.03125L438.73438 461.96875Q439.09375 461.3125 439.39062 461.10938Q439.70312 460.89062 440.07812 460.89062Q440.60938 460.89062 441.15625 461.21875L440.79688 462.20312Q440.40625 461.96875 440.03125 461.96875Q439.67188 461.96875 439.39062 462.1875Q439.125 462.39062 439.01562 462.76562Q438.82812 463.32812 438.82812 463.98438L438.82812 467.25L437.78125 467.25ZM445.85938 466.48438Q445.26562 466.98438 444.71875 467.1875Q444.1875 467.39062 443.5625 467.39062Q442.53125 467.39062 441.98438 466.89062Q441.4375 466.39062 441.4375 465.60938Q441.4375 465.15625 441.64062 464.78125Q441.84375 464.39062 442.1875 464.17188Q442.53125 463.9375 442.95312 463.82812Q443.25 463.73438 443.89062 463.65625Q445.15625 463.51562 445.76562 463.29688Q445.76562 463.07812 445.76562 463.03125Q445.76562 462.375 445.46875 462.10938Q445.0625 461.76562 444.26562 461.76562Q443.53125 461.76562 443.17188 462.03125Q442.8125 462.28125 442.64062 462.9375L441.60938 462.79688Q441.75 462.14062 442.07812 461.73438Q442.40625 461.32812 443.01562 461.10938Q443.625 460.89062 444.42188 460.89062Q445.21875 460.89062 445.71875 461.07812Q446.21875 461.26562 446.45312 461.54688Q446.6875 461.82812 446.78125 462.26562Q446.82812 462.53125 446.82812 463.23438L446.82812 464.64062Q446.82812 466.10938 446.89062 466.5Q446.96875 466.89062 447.17188 467.25L446.0625 467.25Q445.90625 466.92188 445.85938 466.48438ZM445.76562 464.125Q445.1875 464.35938 444.04688 464.53125Q443.39062 464.625 443.125 464.75Q442.85938 464.85938 442.70312 465.07812Q442.5625 465.29688 442.5625 465.57812Q442.5625 466.0 442.875 466.28125Q443.20312 466.5625 443.8125 466.5625Q444.42188 466.5625 444.89062 466.29688Q445.375 466.03125 445.59375 465.5625Q445.76562 465.20312 445.76562 464.51562L445.76562 464.125ZM451.09375 466.3125L451.25 467.23438Q450.79688 467.32812 450.45312 467.32812Q449.875 467.32812 449.5625 467.15625Q449.25 466.96875 449.10938 466.67188Q448.98438 466.375 448.98438 465.42188L448.98438 461.84375L448.21875 461.84375L448.21875 461.03125L448.98438 461.03125L448.98438 459.48438L450.03125 458.85938L450.03125 461.03125L451.09375 461.03125L451.09375 461.84375L450.03125 461.84375L450.03125 465.48438Q450.03125 465.9375 450.07812 466.0625Q450.14062 466.1875 450.26562 466.26562Q450.39062 466.34375 450.625 466.34375Q450.8125 466.34375 451.09375 466.3125ZM451.79688 459.875L451.79688 458.65625L452.85938 458.65625L452.85938 459.875L451.79688 459.875ZM451.79688 467.25L451.79688 461.03125L452.85938 461.03125L452.85938 467.25L451.79688 467.25ZM454.40625 464.14062Q454.40625 462.40625 455.35938 461.57812Q456.15625 460.89062 457.3125 460.89062Q458.59375 460.89062 459.40625 461.73438Q460.23438 462.5625 460.23438 464.04688Q460.23438 465.25 459.875 465.9375Q459.51562 466.625 458.8125 467.01562Q458.125 467.39062 457.3125 467.39062Q456.01562 467.39062 455.20312 466.5625Q454.40625 465.71875 454.40625 464.14062ZM455.48438 464.14062Q455.48438 465.32812 456.0 465.92188Q456.53125 466.51562 457.3125 466.51562Q458.10938 466.51562 458.625 465.92188Q459.14062 465.32812 459.14062 464.10938Q459.14062 462.95312 458.60938 462.35938Q458.09375 461.76562 457.3125 461.76562Q456.53125 461.76562 456.0 462.35938Q455.48438 462.9375 455.48438 464.14062ZM461.79688 467.25L461.79688 461.03125L462.73438 461.03125L462.73438 461.90625Q463.42188 460.89062 464.71875 460.89062Q465.28125 460.89062 465.75 461.09375Q466.23438 461.29688 466.46875 461.625Q466.70312 461.95312 466.79688 462.39062Q466.84375 462.6875 466.84375 463.42188L466.84375 467.25L465.79688 467.25L465.79688 463.46875Q465.79688 462.8125 465.67188 462.5Q465.54688 462.1875 465.23438 462.0Q464.92188 461.79688 464.5 461.79688Q463.82812 461.79688 463.32812 462.23438Q462.84375 462.65625 462.84375 463.84375L462.84375 467.25L461.79688 467.25ZM473.8125 469.78125Q472.9375 468.67188 472.32812 467.20312Q471.73438 465.71875 471.73438 464.14062Q471.73438 462.75 472.17188 461.46875Q472.70312 459.98438 473.8125 458.51562L474.5625 458.51562Q473.85938 459.73438 473.625 460.25Q473.26562 461.0625 473.0625 461.9375Q472.8125 463.03125 472.8125 464.14062Q472.8125 466.96875 474.5625 469.78125L473.8125 469.78125ZM475.79688 467.25L475.79688 461.03125L476.73438 461.03125L476.73438 461.90625Q477.42188 460.89062 478.71875 460.89062Q479.28125 460.89062 479.75 461.09375Q480.23438 461.29688 480.46875 461.625Q480.70312 461.95312 480.79688 462.39062Q480.84375 462.6875 480.84375 463.42188L480.84375 467.25L479.79688 467.25L479.79688 463.46875Q479.79688 462.8125 479.67188 462.5Q479.54688 462.1875 479.23438 462.0Q478.92188 461.79688 478.5 461.79688Q477.82812 461.79688 477.32812 462.23438Q476.84375 462.65625 476.84375 463.84375L476.84375 467.25L475.79688 467.25ZM482.375 465.39062L483.40625 465.23438Q483.5 465.85938 483.89062 466.1875Q484.29688 466.51562 485.03125 466.51562Q485.75 466.51562 486.09375 466.23438Q486.45312 465.9375 486.45312 465.53125Q486.45312 465.17188 486.14062 464.96875Q485.92188 464.82812 485.0625 464.60938Q483.90625 464.3125 483.45312 464.10938Q483.01562 463.89062 482.78125 463.51562Q482.54688 463.14062 482.54688 462.67188Q482.54688 462.26562 482.73438 461.90625Q482.92188 461.54688 483.25 461.3125Q483.5 461.14062 483.92188 461.01562Q484.34375 460.89062 484.84375 460.89062Q485.5625 460.89062 486.10938 461.10938Q486.67188 461.3125 486.9375 461.67188Q487.20312 462.03125 487.29688 462.625L486.26562 462.76562Q486.20312 462.29688 485.85938 462.03125Q485.53125 461.75 484.90625 461.75Q484.1875 461.75 483.875 462.0Q483.5625 462.23438 483.5625 462.5625Q483.5625 462.76562 483.6875 462.92188Q483.82812 463.09375 484.09375 463.20312Q484.25 463.26562 485.03125 463.46875Q486.15625 463.78125 486.59375 463.96875Q487.03125 464.15625 487.28125 464.51562Q487.53125 464.875 487.53125 465.42188Q487.53125 465.95312 487.21875 466.42188Q486.92188 466.875 486.34375 467.14062Q485.76562 467.39062 485.03125 467.39062Q483.8125 467.39062 483.17188 466.89062Q482.54688 466.375 482.375 465.39062ZM488.0 467.39062L490.48438 458.51562L491.32812 458.51562L488.84375 467.39062L488.0 467.39062ZM491.40625 464.14062Q491.40625 462.40625 492.35938 461.57812Q493.15625 460.89062 494.3125 460.89062Q495.59375 460.89062 496.40625 461.73438Q497.23438 462.5625 497.23438 464.04688Q497.23438 465.25 496.875 465.9375Q496.51562 466.625 495.8125 467.01562Q495.125 467.39062 494.3125 467.39062Q493.01562 467.39062 492.20312 466.5625Q491.40625 465.71875 491.40625 464.14062ZM492.48438 464.14062Q492.48438 465.32812 493.0 465.92188Q493.53125 466.51562 494.3125 466.51562Q495.10938 466.51562 495.625 465.92188Q496.14062 465.32812 496.14062 464.10938Q496.14062 462.95312 495.60938 462.35938Q495.09375 461.76562 494.3125 461.76562Q493.53125 461.76562 493.0 462.35938Q492.48438 462.9375 492.48438 464.14062ZM498.79688 469.64062L498.79688 461.03125L499.75 461.03125L499.75 461.82812Q500.09375 461.35938 500.51562 461.125Q500.95312 460.89062 501.5625 460.89062Q502.35938 460.89062 502.96875 461.29688Q503.57812 461.70312 503.875 462.45312Q504.1875 463.20312 504.1875 464.09375Q504.1875 465.04688 503.84375 465.8125Q503.51562 466.57812 502.85938 466.98438Q502.20312 467.39062 501.48438 467.39062Q500.95312 467.39062 500.53125 467.17188Q500.10938 466.9375 499.84375 466.60938L499.84375 469.64062L498.79688 469.64062ZM499.75 464.17188Q499.75 465.375 500.23438 465.95312Q500.71875 466.51562 501.40625 466.51562Q502.10938 466.51562 502.60938 465.92188Q503.10938 465.32812 503.10938 464.07812Q503.10938 462.89062 502.625 462.3125Q502.14062 461.71875 501.45312 461.71875Q500.78125 461.71875 500.26562 462.34375Q499.75 462.96875 499.75 464.17188ZM506.48438 469.78125L505.73438 469.78125Q507.48438 466.96875 507.48438 464.14062Q507.48438 463.04688 507.23438 461.95312Q507.03125 461.07812 506.67188 460.26562Q506.4375 459.75 505.73438 458.51562L506.48438 458.51562Q507.57812 459.98438 508.10938 461.46875Q508.5625 462.75 508.5625 464.14062Q508.5625 465.71875 507.95312 467.20312Q507.34375 468.67188 506.48438 469.78125Z" fill-rule="nonzero"/><path fill="#f6f8f9" d="M25.640625 124.02586L25.640625 115.43211L27.359375 115.43211L29.390625 121.51024Q29.671875 122.36961 29.796875 122.79149Q29.9375 122.32274 30.25 121.41649L32.3125 115.43211L33.84375 115.43211L33.84375 124.02586L32.75 124.02586L32.75 116.83836L30.25 124.02586L29.21875 124.02586L26.734375 116.71336L26.734375 124.02586L25.640625 124.02586ZM35.5 126.41649L35.375 125.43211Q35.71875 125.52586 35.984375 125.52586Q36.328125 125.52586 36.53125 125.40086Q36.75 125.29149 36.890625 125.08836Q36.984375 124.91649 37.21875 124.29149Q37.234375 124.21336 37.3125 124.04149L34.9375 117.80711L36.078125 117.80711L37.375 121.40086Q37.625 122.08836 37.828125 122.85399Q38.015625 122.11961 38.265625 121.43211L39.59375 117.80711L40.640625 117.80711L38.28125 124.13524Q37.890625 125.15086 37.6875 125.54149Q37.40625 126.07274 37.03125 126.30711Q36.671875 126.55711 36.171875 126.55711Q35.875 126.55711 35.5 126.41649ZM45.796875 122.02586L46.890625 122.15086Q46.640625 123.10399 45.9375 123.63524Q45.234375 124.16649 44.15625 124.16649Q42.796875 124.16649 41.984375 123.32274Q41.1875 122.47899 41.1875 120.96336Q41.1875 119.40086 42.0 118.54149Q42.8125 117.66649 44.09375 117.66649Q45.34375 117.66649 46.125 118.51024Q46.921875 119.35399 46.921875 120.90086Q46.921875 120.99461 46.921875 121.18211L42.28125 121.18211Q42.34375 122.21336 42.859375 122.76024Q43.375 123.29149 44.15625 123.29149Q44.734375 123.29149 45.140625 122.99461Q45.5625 122.68211 45.796875 122.02586ZM42.34375 120.32274L45.8125 120.32274Q45.75 119.52586 45.421875 119.13524Q44.90625 118.52586 44.109375 118.52586Q43.375 118.52586 42.875 119.01024Q42.390625 119.49461 42.34375 120.32274ZM48.515625 124.02586L48.515625 115.43211L49.578125 115.43211L49.578125 124.02586L48.515625 124.02586ZM51.546875 116.65086L51.546875 115.43211L52.609375 115.43211L52.609375 116.65086L51.546875 116.65086ZM51.546875 124.02586L51.546875 117.80711L52.609375 117.80711L52.609375 124.02586L51.546875 124.02586ZM54.546875 124.02586L54.546875 117.80711L55.484375 117.80711L55.484375 118.68211Q56.171875 117.66649 57.46875 117.66649Q58.03125 117.66649 58.5 117.86961Q58.984375 118.07274 59.21875 118.40086Q59.453125 118.72899 59.546875 119.16649Q59.59375 119.46336 59.59375 120.19774L59.59375 124.02586L58.546875 124.02586L58.546875 120.24461Q58.546875 119.58836 58.421875 119.27586Q58.296875 118.96336 57.984375 118.77586Q57.671875 118.57274 57.25 118.57274Q56.578125 118.57274 56.078125 119.01024Q55.59375 119.43211 55.59375 120.61961L55.59375 124.02586L54.546875 124.02586ZM66.5625 126.55711Q65.6875 125.44774 65.078125 123.97899Q64.484375 122.49461 64.484375 120.91649Q64.484375 119.52586 64.921875 118.24461Q65.453125 116.76024 66.5625 115.29149L67.3125 115.29149Q66.609375 116.51024 66.375 117.02586Q66.015625 117.83836 65.8125 118.71336Q65.5625 119.80711 65.5625 120.91649Q65.5625 123.74461 67.3125 126.55711L66.5625 126.55711ZM68.671875 124.02586L68.671875 115.43211L69.828125 115.43211L74.34375 122.18211L74.34375 115.43211L75.4375 115.43211L75.4375 124.02586L74.265625 124.02586L69.75 117.27586L69.75 124.02586L68.671875 124.02586ZM81.609375 123.26024Q81.015625 123.76024 80.46875 123.96336Q79.9375 124.16649 79.3125 124.16649Q78.28125 124.16649 77.734375 123.66649Q77.1875 123.16649 77.1875 122.38524Q77.1875 121.93211 77.390625 121.55711Q77.59375 121.16649 77.9375 120.94774Q78.28125 120.71336 78.703125 120.60399Q79.0 120.51024 79.640625 120.43211Q80.90625 120.29149 81.515625 120.07274Q81.515625 119.85399 81.515625 119.80711Q81.515625 119.15086 81.21875 118.88524Q80.8125 118.54149 80.015625 118.54149Q79.28125 118.54149 78.921875 118.80711Q78.5625 119.05711 78.390625 119.71336L77.359375 119.57274Q77.5 118.91649 77.828125 118.51024Q78.15625 118.10399 78.765625 117.88524Q79.375 117.66649 80.171875 117.66649Q80.96875 117.66649 81.46875 117.85399Q81.96875 118.04149 82.203125 118.32274Q82.4375 118.60399 82.53125 119.04149Q82.578125 119.30711 82.578125 120.01024L82.578125 121.41649Q82.578125 122.88524 82.640625 123.27586Q82.71875 123.66649 82.921875 124.02586L81.8125 124.02586Q81.65625 123.69774 81.609375 123.26024ZM81.515625 120.90086Q80.9375 121.13524 79.796875 121.30711Q79.140625 121.40086 78.875 121.52586Q78.609375 121.63524 78.453125 121.85399Q78.3125 122.07274 78.3125 122.35399Q78.3125 122.77586 78.625 123.05711Q78.953125 123.33836 79.5625 123.33836Q80.171875 123.33836 80.640625 123.07274Q81.125 122.80711 81.34375 122.33836Q81.515625 121.97899 81.515625 121.29149L81.515625 120.90086ZM86.84375 123.08836L87.0 124.01024Q86.546875 124.10399 86.203125 124.10399Q85.625 124.10399 85.3125 123.93211Q85.0 123.74461 84.859375 123.44774Q84.734375 123.15086 84.734375 122.19774L84.734375 118.61961L83.96875 118.61961L83.96875 117.80711L84.734375 117.80711L84.734375 116.26024L85.78125 115.63524L85.78125 117.80711L86.84375 117.80711L86.84375 118.61961L85.78125 118.61961L85.78125 122.26024Q85.78125 122.71336 85.828125 122.83836Q85.890625 122.96336 86.015625 123.04149Q86.140625 123.11961 86.375 123.11961Q86.5625 123.11961 86.84375 123.08836ZM87.546875 116.65086L87.546875 115.43211L88.609375 115.43211L88.609375 116.65086L87.546875 116.65086ZM87.546875 124.02586L87.546875 117.80711L88.609375 117.80711L88.609375 124.02586L87.546875 124.02586ZM92.265625 124.02586L89.90625 117.80711L91.015625 117.80711L92.359375 121.52586Q92.5625 122.13524 92.75 122.77586Q92.890625 122.29149 93.140625 121.60399L94.53125 117.80711L95.609375 117.80711L93.25 124.02586L92.265625 124.02586ZM100.796875 122.02586L101.890625 122.15086Q101.640625 123.10399 100.9375 123.63524Q100.234375 124.16649 99.15625 124.16649Q97.796875 124.16649 96.984375 123.32274Q96.1875 122.47899 96.1875 120.96336Q96.1875 119.40086 97.0 118.54149Q97.8125 117.66649 99.09375 117.66649Q100.34375 117.66649 101.125 118.51024Q101.921875 119.35399 101.921875 120.90086Q101.921875 120.99461 101.921875 121.18211L97.28125 121.18211Q97.34375 122.21336 97.859375 122.76024Q98.375 123.29149 99.15625 123.29149Q99.734375 123.29149 100.140625 122.99461Q100.5625 122.68211 100.796875 122.02586ZM97.34375 120.32274L100.8125 120.32274Q100.75 119.52586 100.421875 119.13524Q99.90625 118.52586 99.109375 118.52586Q98.375 118.52586 97.875 119.01024Q97.390625 119.49461 97.34375 120.32274ZM104.234375 126.55711L103.484375 126.55711Q105.234375 123.74461 105.234375 120.91649Q105.234375 119.82274 104.984375 118.72899Q104.78125 117.85399 104.421875 117.04149Q104.1875 116.52586 103.484375 115.29149L104.234375 115.29149Q105.328125 116.76024 105.859375 118.24461Q106.3125 119.52586 106.3125 120.91649Q106.3125 122.49461 105.703125 123.97899Q105.09375 125.44774 104.234375 126.55711Z" fill-rule="nonzero"/><path fill="#f6f8f9" d="M41.640625 205.1753L41.640625 196.58154L43.359375 196.58154L45.390625 202.65967Q45.671875 203.51904 45.796875 203.94092Q45.9375 203.47217 46.25 202.56592L48.3125 196.58154L49.84375 196.58154L49.84375 205.1753L48.75 205.1753L48.75 197.9878L46.25 205.1753L45.21875 205.1753L42.734375 197.8628L42.734375 205.1753L41.640625 205.1753ZM51.5 207.56592L51.375 206.58154Q51.71875 206.6753 51.984375 206.6753Q52.328125 206.6753 52.53125 206.5503Q52.75 206.44092 52.890625 206.2378Q52.984375 206.06592 53.21875 205.44092Q53.234375 205.3628 53.3125 205.19092L50.9375 198.95654L52.078125 198.95654L53.375 202.5503Q53.625 203.2378 53.828125 204.00342Q54.015625 203.26904 54.265625 202.58154L55.59375 198.95654L56.640625 198.95654L54.28125 205.28467Q53.890625 206.3003 53.6875 206.69092Q53.40625 207.22217 53.03125 207.45654Q52.671875 207.70654 52.171875 207.70654Q51.875 207.70654 51.5 207.56592ZM61.796875 203.1753L62.890625 203.3003Q62.640625 204.25342 61.9375 204.78467Q61.234375 205.31592 60.15625 205.31592Q58.796875 205.31592 57.984375 204.47217Q57.1875 203.62842 57.1875 202.1128Q57.1875 200.5503 58.0 199.69092Q58.8125 198.81592 60.09375 198.81592Q61.34375 198.81592 62.125 199.65967Q62.921875 200.50342 62.921875 202.0503Q62.921875 202.14404 62.921875 202.33154L58.28125 202.33154Q58.34375 203.3628 58.859375 203.90967Q59.375 204.44092 60.15625 204.44092Q60.734375 204.44092 61.140625 204.14404Q61.5625 203.83154 61.796875 203.1753ZM58.34375 201.47217L61.8125 201.47217Q61.75 200.6753 61.421875 200.28467Q60.90625 199.6753 60.109375 199.6753Q59.375 199.6753 58.875 200.15967Q58.390625 200.64404 58.34375 201.47217ZM64.515625 205.1753L64.515625 196.58154L65.578125 196.58154L65.578125 205.1753L64.515625 205.1753ZM67.546875 197.8003L67.546875 196.58154L68.609375 196.58154L68.609375 197.8003L67.546875 197.8003ZM67.546875 205.1753L67.546875 198.95654L68.609375 198.95654L68.609375 205.1753L67.546875 205.1753ZM70.546875 205.1753L70.546875 198.95654L71.484375 198.95654L71.484375 199.83154Q72.171875 198.81592 73.46875 198.81592Q74.03125 198.81592 74.5 199.01904Q74.984375 199.22217 75.21875 199.5503Q75.453125 199.87842 75.546875 200.31592Q75.59375 200.6128 75.59375 201.34717L75.59375 205.1753L74.546875 205.1753L74.546875 201.39404Q74.546875 200.7378 74.421875 200.4253Q74.296875 200.1128 73.984375 199.9253Q73.671875 199.72217 73.25 199.72217Q72.578125 199.72217 72.078125 200.15967Q71.59375 200.58154 71.59375 201.76904L71.59375 205.1753L70.546875 205.1753ZM82.5625 207.70654Q81.6875 206.59717 81.078125 205.12842Q80.484375 203.64404 80.484375 202.06592Q80.484375 200.6753 80.921875 199.39404Q81.453125 197.90967 82.5625 196.44092L83.3125 196.44092Q82.609375 197.65967 82.375 198.1753Q82.015625 198.9878 81.8125 199.8628Q81.5625 200.95654 81.5625 202.06592Q81.5625 204.89404 83.3125 207.70654L82.5625 207.70654ZM84.671875 205.1753L84.671875 196.58154L85.828125 196.58154L90.34375 203.33154L90.34375 196.58154L91.4375 196.58154L91.4375 205.1753L90.265625 205.1753L85.75 198.4253L85.75 205.1753L84.671875 205.1753ZM97.796875 203.1753L98.890625 203.3003Q98.640625 204.25342 97.9375 204.78467Q97.234375 205.31592 96.15625 205.31592Q94.796875 205.31592 93.984375 204.47217Q93.1875 203.62842 93.1875 202.1128Q93.1875 200.5503 94.0 199.69092Q94.8125 198.81592 96.09375 198.81592Q97.34375 198.81592 98.125 199.65967Q98.921875 200.50342 98.921875 202.0503Q98.921875 202.14404 98.921875 202.33154L94.28125 202.33154Q94.34375 203.3628 94.859375 203.90967Q95.375 204.44092 96.15625 204.44092Q96.734375 204.44092 97.140625 204.14404Q97.5625 203.83154 97.796875 203.1753ZM94.34375 201.47217L97.8125 201.47217Q97.75 200.6753 97.421875 200.28467Q96.90625 199.6753 96.109375 199.6753Q95.375 199.6753 94.875 200.15967Q94.390625 200.64404 94.34375 201.47217ZM102.84375 204.2378L103.0 205.15967Q102.546875 205.25342 102.203125 205.25342Q101.625 205.25342 101.3125 205.08154Q101.0 204.89404 100.859375 204.59717Q100.734375 204.3003 100.734375 203.34717L100.734375 199.76904L99.96875 199.76904L99.96875 198.95654L100.734375 198.95654L100.734375 197.40967L101.78125 196.78467L101.78125 198.95654L102.84375 198.95654L102.84375 199.76904L101.78125 199.76904L101.78125 203.40967Q101.78125 203.8628 101.828125 203.9878Q101.890625 204.1128 102.015625 204.19092Q102.140625 204.26904 102.375 204.26904Q102.5625 204.26904 102.84375 204.2378ZM104.234375 207.70654L103.484375 207.70654Q105.234375 204.89404 105.234375 202.06592Q105.234375 200.97217 104.984375 199.87842Q104.78125 199.00342 104.421875 198.19092Q104.1875 197.6753 103.484375 196.44092L104.234375 196.44092Q105.328125 197.90967 105.859375 199.39404Q106.3125 200.6753 106.3125 202.06592Q106.3125 203.64404 105.703125 205.12842Q105.09375 206.59717 104.234375 207.70654Z" fill-rule="nonzero"/><path fill="#f6f8f9" d="M61.671875 286.3247L61.671875 277.73096L64.921875 277.73096Q65.765625 277.73096 66.21875 277.80908Q66.859375 277.91846 67.28125 278.21533Q67.71875 278.5122 67.96875 279.04346Q68.234375 279.5747 68.234375 280.21533Q68.234375 281.30908 67.53125 282.0747Q66.84375 282.8247 65.015625 282.8247L62.8125 282.8247L62.8125 286.3247L61.671875 286.3247ZM62.8125 281.8247L65.03125 281.8247Q66.140625 281.8247 66.59375 281.41846Q67.0625 280.99658 67.0625 280.24658Q67.0625 279.71533 66.78125 279.34033Q66.515625 278.9497 66.078125 278.8247Q65.78125 278.74658 65.015625 278.74658L62.8125 278.74658L62.8125 281.8247ZM69.53125 286.3247L69.53125 280.10596L70.484375 280.10596L70.484375 281.04346Q70.84375 280.3872 71.140625 280.18408Q71.453125 279.96533 71.828125 279.96533Q72.359375 279.96533 72.90625 280.29346L72.546875 281.27783Q72.15625 281.04346 71.78125 281.04346Q71.421875 281.04346 71.140625 281.2622Q70.875 281.46533 70.765625 281.84033Q70.578125 282.40283 70.578125 283.05908L70.578125 286.3247L69.53125 286.3247ZM73.15625 283.21533Q73.15625 281.48096 74.109375 280.65283Q74.90625 279.96533 76.0625 279.96533Q77.34375 279.96533 78.15625 280.80908Q78.984375 281.6372 78.984375 283.12158Q78.984375 284.3247 78.625 285.0122Q78.265625 285.6997 77.5625 286.09033Q76.875 286.46533 76.0625 286.46533Q74.765625 286.46533 73.953125 285.6372Q73.15625 284.79346 73.15625 283.21533ZM74.234375 283.21533Q74.234375 284.40283 74.75 284.99658Q75.28125 285.59033 76.0625 285.59033Q76.859375 285.59033 77.375 284.99658Q77.890625 284.40283 77.890625 283.18408Q77.890625 282.02783 77.359375 281.43408Q76.84375 280.84033 76.0625 280.84033Q75.28125 280.84033 74.75 281.43408Q74.234375 282.0122 74.234375 283.21533ZM82.84375 285.3872L83.0 286.30908Q82.546875 286.40283 82.203125 286.40283Q81.625 286.40283 81.3125 286.23096Q81.0 286.04346 80.859375 285.74658Q80.734375 285.4497 80.734375 284.49658L80.734375 280.91846L79.96875 280.91846L79.96875 280.10596L80.734375 280.10596L80.734375 278.55908L81.78125 277.93408L81.78125 280.10596L82.84375 280.10596L82.84375 280.91846L81.78125 280.91846L81.78125 284.55908Q81.78125 285.0122 81.828125 285.1372Q81.890625 285.2622 82.015625 285.34033Q82.140625 285.41846 82.375 285.41846Q82.5625 285.41846 82.84375 285.3872ZM83.15625 283.21533Q83.15625 281.48096 84.109375 280.65283Q84.90625 279.96533 86.0625 279.96533Q87.34375 279.96533 88.15625 280.80908Q88.984375 281.6372 88.984375 283.12158Q88.984375 284.3247 88.625 285.0122Q88.265625 285.6997 87.5625 286.09033Q86.875 286.46533 86.0625 286.46533Q84.765625 286.46533 83.953125 285.6372Q83.15625 284.79346 83.15625 283.21533ZM84.234375 283.21533Q84.234375 284.40283 84.75 284.99658Q85.28125 285.59033 86.0625 285.59033Q86.859375 285.59033 87.375 284.99658Q87.890625 284.40283 87.890625 283.18408Q87.890625 282.02783 87.359375 281.43408Q86.84375 280.84033 86.0625 280.84033Q85.28125 280.84033 84.75 281.43408Q84.234375 282.0122 84.234375 283.21533ZM91.515625 286.3247L90.53125 286.3247L90.53125 277.73096L91.59375 277.73096L91.59375 280.79346Q92.265625 279.96533 93.296875 279.96533Q93.875 279.96533 94.375 280.1997Q94.890625 280.41846 95.21875 280.84033Q95.5625 281.2622 95.75 281.85596Q95.9375 282.4497 95.9375 283.12158Q95.9375 284.71533 95.140625 285.59033Q94.34375 286.46533 93.25 286.46533Q92.140625 286.46533 91.515625 285.54346L91.515625 286.3247ZM91.5 283.16846Q91.5 284.27783 91.8125 284.77783Q92.3125 285.59033 93.15625 285.59033Q93.84375 285.59033 94.34375 284.99658Q94.859375 284.40283 94.859375 283.1997Q94.859375 281.98096 94.375 281.40283Q93.890625 280.8247 93.203125 280.8247Q92.515625 280.8247 92.0 281.43408Q91.5 282.02783 91.5 283.16846ZM101.625 286.3247L101.625 285.40283Q100.890625 286.46533 99.640625 286.46533Q99.09375 286.46533 98.609375 286.2622Q98.140625 286.04346 97.90625 285.73096Q97.671875 285.40283 97.578125 284.93408Q97.515625 284.6372 97.515625 283.9497L97.515625 280.10596L98.578125 280.10596L98.578125 283.55908Q98.578125 284.37158 98.640625 284.66846Q98.734375 285.0747 99.046875 285.3247Q99.375 285.55908 99.859375 285.55908Q100.328125 285.55908 100.734375 285.3247Q101.15625 285.0747 101.328125 284.65283Q101.515625 284.23096 101.515625 283.43408L101.515625 280.10596L102.5625 280.10596L102.5625 286.3247L101.625 286.3247ZM104.796875 286.3247L104.796875 280.91846L103.859375 280.91846L103.859375 280.10596L104.796875 280.10596L104.796875 279.43408Q104.796875 278.80908 104.90625 278.5122Q105.0625 278.09033 105.4375 277.84033Q105.828125 277.59033 106.515625 277.59033Q106.96875 277.59033 107.5 277.6997L107.34375 278.60596Q107.015625 278.55908 106.71875 278.55908Q106.234375 278.55908 106.03125 278.7622Q105.84375 278.96533 105.84375 279.52783L105.84375 280.10596L107.0625 280.10596L107.0625 280.91846L105.84375 280.91846L105.84375 286.3247L104.796875 286.3247Z" fill-rule="nonzero"/><path fill="#f6f8f9" d="M49.734375 367.47415L49.734375 358.8804L55.53125 358.8804L55.53125 359.89603L50.875 359.89603L50.875 362.55228L54.90625 362.55228L54.90625 363.5679L50.875 363.5679L50.875 367.47415L49.734375 367.47415ZM56.515625 367.47415L56.515625 358.8804L57.578125 358.8804L57.578125 367.47415L56.515625 367.47415ZM63.609375 366.70853Q63.015625 367.20853 62.46875 367.41165Q61.9375 367.61478 61.3125 367.61478Q60.28125 367.61478 59.734375 367.11478Q59.1875 366.61478 59.1875 365.83353Q59.1875 365.3804 59.390625 365.0054Q59.59375 364.61478 59.9375 364.39603Q60.28125 364.16165 60.703125 364.05228Q61.0 363.95853 61.640625 363.8804Q62.90625 363.73978 63.515625 363.52103Q63.515625 363.30228 63.515625 363.2554Q63.515625 362.59915 63.21875 362.33353Q62.8125 361.98978 62.015625 361.98978Q61.28125 361.98978 60.921875 362.2554Q60.5625 362.5054 60.390625 363.16165L59.359375 363.02103Q59.5 362.36478 59.828125 361.95853Q60.15625 361.55228 60.765625 361.33353Q61.375 361.11478 62.171875 361.11478Q62.96875 361.11478 63.46875 361.30228Q63.96875 361.48978 64.203125 361.77103Q64.4375 362.05228 64.53125 362.48978Q64.578125 362.7554 64.578125 363.45853L64.578125 364.86478Q64.578125 366.33353 64.640625 366.72415Q64.71875 367.11478 64.921875 367.47415L63.8125 367.47415Q63.65625 367.14603 63.609375 366.70853ZM63.515625 364.34915Q62.9375 364.58353 61.796875 364.7554Q61.140625 364.84915 60.875 364.97415Q60.609375 365.08353 60.453125 365.30228Q60.3125 365.52103 60.3125 365.80228Q60.3125 366.22415 60.625 366.5054Q60.953125 366.78665 61.5625 366.78665Q62.171875 366.78665 62.640625 366.52103Q63.125 366.2554 63.34375 365.78665Q63.515625 365.42728 63.515625 364.73978L63.515625 364.34915ZM68.84375 366.53665L69.0 367.45853Q68.546875 367.55228 68.203125 367.55228Q67.625 367.55228 67.3125 367.3804Q67.0 367.1929 66.859375 366.89603Q66.734375 366.59915 66.734375 365.64603L66.734375 362.0679L65.96875 362.0679L65.96875 361.2554L66.734375 361.2554L66.734375 359.70853L67.78125 359.08353L67.78125 361.2554L68.84375 361.2554L68.84375 362.0679L67.78125 362.0679L67.78125 365.70853Q67.78125 366.16165 67.828125 366.28665Q67.890625 366.41165 68.015625 366.48978Q68.140625 366.5679 68.375 366.5679Q68.5625 366.5679 68.84375 366.53665ZM69.625 367.47415L69.625 358.8804L72.859375 358.8804Q73.84375 358.8804 74.4375 359.14603Q75.03125 359.41165 75.359375 359.95853Q75.703125 360.48978 75.703125 361.08353Q75.703125 361.6304 75.40625 362.11478Q75.109375 362.59915 74.5 362.89603Q75.28125 363.1304 75.6875 363.6929Q76.109375 364.23978 76.109375 364.98978Q76.109375 365.58353 75.859375 366.11478Q75.609375 366.6304 75.234375 366.91165Q74.859375 367.1929 74.28125 367.33353Q73.71875 367.47415 72.90625 367.47415L69.625 367.47415ZM70.765625 362.48978L72.625 362.48978Q73.375 362.48978 73.703125 362.39603Q74.140625 362.27103 74.359375 361.97415Q74.578125 361.66165 74.578125 361.20853Q74.578125 360.78665 74.375 360.45853Q74.171875 360.1304 73.78125 360.02103Q73.40625 359.89603 72.484375 359.89603L70.765625 359.89603L70.765625 362.48978ZM70.765625 366.45853L72.90625 366.45853Q73.453125 366.45853 73.671875 366.41165Q74.078125 366.34915 74.328125 366.1929Q74.59375 366.02103 74.765625 365.70853Q74.9375 365.39603 74.9375 364.98978Q74.9375 364.5054 74.6875 364.14603Q74.453125 363.78665 74.015625 363.64603Q73.578125 363.5054 72.75 363.5054L70.765625 363.5054L70.765625 366.45853ZM81.625 367.47415L81.625 366.55228Q80.890625 367.61478 79.640625 367.61478Q79.09375 367.61478 78.609375 367.41165Q78.140625 367.1929 77.90625 366.8804Q77.671875 366.55228 77.578125 366.08353Q77.515625 365.78665 77.515625 365.09915L77.515625 361.2554L78.578125 361.2554L78.578125 364.70853Q78.578125 365.52103 78.640625 365.8179Q78.734375 366.22415 79.046875 366.47415Q79.375 366.70853 79.859375 366.70853Q80.328125 366.70853 80.734375 366.47415Q81.15625 366.22415 81.328125 365.80228Q81.515625 365.3804 81.515625 364.58353L81.515625 361.2554L82.5625 361.2554L82.5625 367.47415L81.625 367.47415ZM84.796875 367.47415L84.796875 362.0679L83.859375 362.0679L83.859375 361.2554L84.796875 361.2554L84.796875 360.58353Q84.796875 359.95853 84.90625 359.66165Q85.0625 359.23978 85.4375 358.98978Q85.828125 358.73978 86.515625 358.73978Q86.96875 358.73978 87.5 358.84915L87.34375 359.7554Q87.015625 359.70853 86.71875 359.70853Q86.234375 359.70853 86.03125 359.91165Q85.84375 360.11478 85.84375 360.67728L85.84375 361.2554L87.0625 361.2554L87.0625 362.0679L85.84375 362.0679L85.84375 367.47415L84.796875 367.47415ZM87.796875 367.47415L87.796875 362.0679L86.859375 362.0679L86.859375 361.2554L87.796875 361.2554L87.796875 360.58353Q87.796875 359.95853 87.90625 359.66165Q88.0625 359.23978 88.4375 358.98978Q88.828125 358.73978 89.515625 358.73978Q89.96875 358.73978 90.5 358.84915L90.34375 359.7554Q90.015625 359.70853 89.71875 359.70853Q89.234375 359.70853 89.03125 359.91165Q88.84375 360.11478 88.84375 360.67728L88.84375 361.2554L90.0625 361.2554L90.0625 362.0679L88.84375 362.0679L88.84375 367.47415L87.796875 367.47415ZM94.796875 365.47415L95.890625 365.59915Q95.640625 366.55228 94.9375 367.08353Q94.234375 367.61478 93.15625 367.61478Q91.796875 367.61478 90.984375 366.77103Q90.1875 365.92728 90.1875 364.41165Q90.1875 362.84915 91.0 361.98978Q91.8125 361.11478 93.09375 361.11478Q94.34375 361.11478 95.125 361.95853Q95.921875 362.80228 95.921875 364.34915Q95.921875 364.4429 95.921875 364.6304L91.28125 364.6304Q91.34375 365.66165 91.859375 366.20853Q92.375 366.73978 93.15625 366.73978Q93.734375 366.73978 94.140625 366.4429Q94.5625 366.1304 94.796875 365.47415ZM91.34375 363.77103L94.8125 363.77103Q94.75 362.97415 94.421875 362.58353Q93.90625 361.97415 93.109375 361.97415Q92.375 361.97415 91.875 362.45853Q91.390625 362.9429 91.34375 363.77103ZM97.53125 367.47415L97.53125 361.2554L98.484375 361.2554L98.484375 362.1929Q98.84375 361.53665 99.140625 361.33353Q99.453125 361.11478 99.828125 361.11478Q100.359375 361.11478 100.90625 361.4429L100.546875 362.42728Q100.15625 362.1929 99.78125 362.1929Q99.421875 362.1929 99.140625 362.41165Q98.875 362.61478 98.765625 362.98978Q98.578125 363.55228 98.578125 364.20853L98.578125 367.47415L97.53125 367.47415ZM101.125 365.61478L102.15625 365.45853Q102.25 366.08353 102.640625 366.41165Q103.046875 366.73978 103.78125 366.73978Q104.5 366.73978 104.84375 366.45853Q105.203125 366.16165 105.203125 365.7554Q105.203125 365.39603 104.890625 365.1929Q104.671875 365.05228 103.8125 364.83353Q102.65625 364.53665 102.203125 364.33353Q101.765625 364.11478 101.53125 363.73978Q101.296875 363.36478 101.296875 362.89603Q101.296875 362.48978 101.484375 362.1304Q101.671875 361.77103 102.0 361.53665Q102.25 361.36478 102.671875 361.23978Q103.09375 361.11478 103.59375 361.11478Q104.3125 361.11478 104.859375 361.33353Q105.421875 361.53665 105.6875 361.89603Q105.953125 362.2554 106.046875 362.84915L105.015625 362.98978Q104.953125 362.52103 104.609375 362.2554Q104.28125 361.97415 103.65625 361.97415Q102.9375 361.97415 102.625 362.22415Q102.3125 362.45853 102.3125 362.78665Q102.3125 362.98978 102.4375 363.14603Q102.578125 363.3179 102.84375 363.42728Q103.0 363.48978 103.78125 363.6929Q104.90625 364.0054 105.34375 364.1929Q105.78125 364.3804 106.03125 364.73978Q106.28125 365.09915 106.28125 365.64603Q106.28125 366.17728 105.96875 366.64603Q105.671875 367.09915 105.09375 367.36478Q104.515625 367.61478 103.78125 367.61478Q102.5625 367.61478 101.921875 367.11478Q101.296875 366.59915 101.125 365.61478Z" fill-rule="nonzero"/><path fill="#f6f8f9" d="M109.75 431.01562Q109.75 429.48438 110.0625 428.5625Q110.375 427.625 110.984375 427.125Q111.609375 426.625 112.546875 426.625Q113.234375 426.625 113.75 426.90625Q114.28125 427.1875 114.625 427.71875Q114.96875 428.23438 115.15625 428.98438Q115.34375 429.73438 115.34375 431.01562Q115.34375 432.53125 115.03125 433.45312Q114.734375 434.375 114.109375 434.89062Q113.5 435.39062 112.546875 435.39062Q111.3125 435.39062 110.59375 434.5Q109.75 433.4375 109.75 431.01562ZM110.828125 431.01562Q110.828125 433.125 111.328125 433.82812Q111.828125 434.53125 112.546875 434.53125Q113.28125 434.53125 113.765625 433.82812Q114.265625 433.125 114.265625 431.01562Q114.265625 428.89062 113.765625 428.20312Q113.28125 427.5 112.53125 427.5Q111.8125 427.5 111.375 428.10938Q110.828125 428.89062 110.828125 431.01562Z" fill-rule="nonzero"/><path fill="#f6f8f9" d="M271.875 433.0L272.98438 432.90625Q273.10938 433.71875 273.54688 434.125Q274.0 434.53125 274.64062 434.53125Q275.39062 434.53125 275.92188 433.95312Q276.45312 433.375 276.45312 432.4375Q276.45312 431.53125 275.9375 431.01562Q275.4375 430.48438 274.60938 430.48438Q274.10938 430.48438 273.6875 430.71875Q273.28125 430.95312 273.04688 431.3125L272.0625 431.1875L272.89062 426.78125L277.17188 426.78125L277.17188 427.78125L273.73438 427.78125L273.28125 430.09375Q274.04688 429.54688 274.89062 429.54688Q276.01562 429.54688 276.78125 430.32812Q277.5625 431.10938 277.5625 432.34375Q277.5625 433.5 276.89062 434.35938Q276.0625 435.39062 274.64062 435.39062Q273.46875 435.39062 272.71875 434.73438Q271.98438 434.07812 271.875 433.0ZM278.875 431.01562Q278.875 429.48438 279.1875 428.5625Q279.5 427.625 280.10938 427.125Q280.73438 426.625 281.67188 426.625Q282.35938 426.625 282.875 426.90625Q283.40625 427.1875 283.75 427.71875Q284.09375 428.23438 284.28125 428.98438Q284.46875 429.73438 284.46875 431.01562Q284.46875 432.53125 284.15625 433.45312Q283.85938 434.375 283.23438 434.89062Q282.625 435.39062 281.67188 435.39062Q280.4375 435.39062 279.71875 434.5Q278.875 433.4375 278.875 431.01562ZM279.95312 431.01562Q279.95312 433.125 280.45312 433.82812Q280.95312 434.53125 281.67188 434.53125Q282.40625 434.53125 282.89062 433.82812Q283.39062 433.125 283.39062 431.01562Q283.39062 428.89062 282.89062 428.20312Q282.40625 427.5 281.65625 427.5Q280.9375 427.5 280.5 428.10938Q279.95312 428.89062 279.95312 431.01562Z" fill-rule="nonzero"/><path fill="#f6f8f9" d="M437.96875 435.25L436.92188 435.25L436.92188 428.53125Q436.53125 428.89062 435.90625 429.26562Q435.29688 429.625 434.8125 429.79688L434.8125 428.78125Q435.6875 428.35938 436.34375 427.78125Q437.01562 427.1875 437.29688 426.625L437.96875 426.625L437.96875 435.25ZM441.0 431.01562Q441.0 429.48438 441.3125 428.5625Q441.625 427.625 442.23438 427.125Q442.85938 426.625 443.79688 426.625Q444.48438 426.625 445.0 426.90625Q445.53125 427.1875 445.875 427.71875Q446.21875 428.23438 446.40625 428.98438Q446.59375 429.73438 446.59375 431.01562Q446.59375 432.53125 446.28125 433.45312Q445.98438 434.375 445.35938 434.89062Q444.75 435.39062 443.79688 435.39062Q442.5625 435.39062 441.84375 434.5Q441.0 433.4375 441.0 431.01562ZM442.07812 431.01562Q442.07812 433.125 442.57812 433.82812Q443.07812 434.53125 443.79688 434.53125Q444.53125 434.53125 445.01562 433.82812Q445.51562 433.125 445.51562 431.01562Q445.51562 428.89062 445.01562 428.20312Q444.53125 427.5 443.78125 427.5Q443.0625 427.5 442.625 428.10938Q442.07812 428.89062 442.07812 431.01562ZM448.0 431.01562Q448.0 429.48438 448.3125 428.5625Q448.625 427.625 449.23438 427.125Q449.85938 426.625 450.79688 426.625Q451.48438 426.625 452.0 426.90625Q452.53125 427.1875 452.875 427.71875Q453.21875 428.23438 453.40625 428.98438Q453.59375 429.73438 453.59375 431.01562Q453.59375 432.53125 453.28125 433.45312Q452.98438 434.375 452.35938 434.89062Q451.75 435.39062 450.79688 435.39062Q449.5625 435.39062 448.84375 434.5Q448.0 433.4375 448.0 431.01562ZM449.07812 431.01562Q449.07812 433.125 449.57812 433.82812Q450.07812 434.53125 450.79688 434.53125Q451.53125 434.53125 452.01562 433.82812Q452.51562 433.125 452.51562 431.01562Q452.51562 428.89062 452.01562 428.20312Q451.53125 427.5 450.78125 427.5Q450.0625 427.5 449.625 428.10938Q449.07812 428.89062 449.07812 431.01562Z" fill-rule="nonzero"/><path fill="#f6f8f9" d="M603.59375 435.25L602.5469 435.25L602.5469 428.53125Q602.15625 428.89062 601.53125 429.26562Q600.9219 429.625 600.4375 429.79688L600.4375 428.78125Q601.3125 428.35938 601.96875 427.78125Q602.6406 427.1875 602.9219 426.625L603.59375 426.625L603.59375 435.25ZM606.625 433.0L607.7344 432.90625Q607.8594 433.71875 608.2969 434.125Q608.75 434.53125 609.3906 434.53125Q610.1406 434.53125 610.6719 433.95312Q611.2031 433.375 611.2031 432.4375Q611.2031 431.53125 610.6875 431.01562Q610.1875 430.48438 609.3594 430.48438Q608.8594 430.48438 608.4375 430.71875Q608.03125 430.95312 607.7969 431.3125L606.8125 431.1875L607.6406 426.78125L611.9219 426.78125L611.9219 427.78125L608.4844 427.78125L608.03125 430.09375Q608.7969 429.54688 609.6406 429.54688Q610.7656 429.54688 611.53125 430.32812Q612.3125 431.10938 612.3125 432.34375Q612.3125 433.5 611.6406 434.35938Q610.8125 435.39062 609.3906 435.39062Q608.21875 435.39062 607.46875 434.73438Q606.7344 434.07812 606.625 433.0ZM613.625 431.01562Q613.625 429.48438 613.9375 428.5625Q614.25 427.625 614.8594 427.125Q615.4844 426.625 616.4219 426.625Q617.1094 426.625 617.625 426.90625Q618.15625 427.1875 618.5 427.71875Q618.84375 428.23438 619.03125 428.98438Q619.21875 429.73438 619.21875 431.01562Q619.21875 432.53125 618.90625 433.45312Q618.6094 434.375 617.9844 434.89062Q617.375 435.39062 616.4219 435.39062Q615.1875 435.39062 614.46875 434.5Q613.625 433.4375 613.625 431.01562ZM614.7031 431.01562Q614.7031 433.125 615.2031 433.82812Q615.7031 434.53125 616.4219 434.53125Q617.15625 434.53125 617.6406 433.82812Q618.1406 433.125 618.1406 431.01562Q618.1406 428.89062 617.6406 428.20312Q617.15625 427.5 616.40625 427.5Q615.6875 427.5 615.25 428.10938Q614.7031 428.89062 614.7031 431.01562Z" fill-rule="nonzero"/><path fill="#f6f8f9" d="M770.7969 434.23438L770.7969 435.25L765.1094 435.25Q765.1094 434.875 765.2344 434.51562Q765.4531 433.9375 765.9219 433.375Q766.40625 432.8125 767.3125 432.07812Q768.71875 430.92188 769.2031 430.25Q769.7031 429.57812 769.7031 428.98438Q769.7031 428.35938 769.25 427.9375Q768.7969 427.5 768.0781 427.5Q767.3125 427.5 766.8594 427.95312Q766.40625 428.40625 766.3906 429.21875L765.3125 429.10938Q765.4219 427.89062 766.1406 427.26562Q766.875 426.625 768.1094 426.625Q769.34375 426.625 770.0625 427.3125Q770.78125 428.0 770.78125 429.01562Q770.78125 429.53125 770.5625 430.03125Q770.3594 430.51562 769.8594 431.07812Q769.375 431.625 768.25 432.57812Q767.2969 433.375 767.0156 433.67188Q766.75 433.95312 766.5781 434.23438L770.7969 434.23438ZM772.25 431.01562Q772.25 429.48438 772.5625 428.5625Q772.875 427.625 773.4844 427.125Q774.1094 426.625 775.0469 426.625Q775.7344 426.625 776.25 426.90625Q776.78125 427.1875 777.125 427.71875Q777.46875 428.23438 777.65625 428.98438Q777.84375 429.73438 777.84375 431.01562Q777.84375 432.53125 777.53125 433.45312Q777.2344 434.375 776.6094 434.89062Q776.0 435.39062 775.0469 435.39062Q773.8125 435.39062 773.09375 434.5Q772.25 433.4375 772.25 431.01562ZM773.3281 431.01562Q773.3281 433.125 773.8281 433.82812Q774.3281 434.53125 775.0469 434.53125Q775.78125 434.53125 776.2656 433.82812Q776.7656 433.125 776.7656 431.01562Q776.7656 428.89062 776.2656 428.20312Q775.78125 427.5 775.03125 427.5Q774.3125 427.5 773.875 428.10938Q773.3281 428.89062 773.3281 431.01562ZM779.25 431.01562Q779.25 429.48438 779.5625 428.5625Q779.875 427.625 780.4844 427.125Q781.1094 426.625 782.0469 426.625Q782.7344 426.625 783.25 426.90625Q783.78125 427.1875 784.125 427.71875Q784.46875 428.23438 784.65625 428.98438Q784.84375 429.73438 784.84375 431.01562Q784.84375 432.53125 784.53125 433.45312Q784.2344 434.375 783.6094 434.89062Q783.0 435.39062 782.0469 435.39062Q780.8125 435.39062 780.09375 434.5Q779.25 433.4375 779.25 431.01562ZM780.3281 431.01562Q780.3281 433.125 780.8281 433.82812Q781.3281 434.53125 782.0469 434.53125Q782.78125 434.53125 783.2656 433.82812Q783.7656 433.125 783.7656 431.01562Q783.7656 428.89062 783.2656 428.20312Q782.78125 427.5 782.03125 427.5Q781.3125 427.5 780.875 428.10938Q780.3281 428.89062 780.3281 431.01562Z" fill-rule="nonzero"/><path fill="#f6f8f9" d="M26.171875 43.75L26.171875 29.4375L30.5 29.4375L33.09375 39.203125L35.65625 29.4375L40.0 29.4375L40.0 43.75L37.3125 43.75L37.3125 32.484375L34.46875 43.75L31.6875 43.75L28.859375 32.484375L28.859375 43.75L26.171875 43.75ZM41.890625 33.375L44.8125 33.375L47.28125 40.734375L49.703125 33.375L52.546875 33.375L48.890625 43.359375L48.234375 45.171875Q47.875 46.078125 47.546875 46.546875Q47.21875 47.03125 46.796875 47.328125Q46.375 47.625 45.75 47.78125Q45.125 47.953125 44.34375 47.953125Q43.5625 47.953125 42.796875 47.796875L42.546875 45.640625Q43.203125 45.765625 43.71875 45.765625Q44.671875 45.765625 45.125 45.203125Q45.59375 44.65625 45.828125 43.78125L41.890625 33.375ZM60.1875 40.453125L62.921875 40.90625Q62.40625 42.40625 61.265625 43.203125Q60.125 43.984375 58.421875 43.984375Q55.703125 43.984375 54.40625 42.21875Q53.390625 40.796875 53.390625 38.640625Q53.390625 36.0625 54.734375 34.609375Q56.078125 33.140625 58.140625 33.140625Q60.453125 33.140625 61.78125 34.671875Q63.125 36.203125 63.078125 39.359375L56.203125 39.359375Q56.234375 40.578125 56.859375 41.265625Q57.5 41.9375 58.4375 41.9375Q59.09375 41.9375 59.53125 41.59375Q59.96875 41.234375 60.1875 40.453125ZM60.34375 37.671875Q60.3125 36.484375 59.71875 35.875Q59.140625 35.25 58.3125 35.25Q57.40625 35.25 56.828125 35.890625Q56.234375 36.546875 56.25 37.671875L60.34375 37.671875ZM65.1875 43.75L65.1875 29.4375L67.9375 29.4375L67.9375 43.75L65.1875 43.75ZM71.1875 31.96875L71.1875 29.4375L73.9375 29.4375L73.9375 31.96875L71.1875 31.96875ZM71.1875 43.75L71.1875 33.375L73.9375 33.375L73.9375 43.75L71.1875 43.75ZM86.625 43.75L83.875 43.75L83.875 38.453125Q83.875 36.78125 83.703125 36.296875Q83.53125 35.796875 83.125 35.53125Q82.734375 35.25 82.171875 35.25Q81.46875 35.25 80.890625 35.640625Q80.328125 36.03125 80.109375 36.671875Q79.90625 37.3125 79.90625 39.046875L79.90625 43.75L77.171875 43.75L77.171875 33.375L79.71875 33.375L79.71875 34.90625Q81.078125 33.140625 83.140625 33.140625Q84.046875 33.140625 84.796875 33.46875Q85.546875 33.796875 85.921875 34.3125Q86.3125 34.8125 86.46875 35.46875Q86.625 36.109375 86.625 37.296875L86.625 43.75ZM95.203125 43.75L95.203125 29.4375L99.84375 29.4375Q102.484375 29.4375 103.28125 29.640625Q104.515625 29.96875 105.34375 31.046875Q106.171875 32.125 106.171875 33.84375Q106.171875 35.15625 105.6875 36.0625Q105.21875 36.953125 104.46875 37.46875Q103.734375 37.984375 102.984375 38.140625Q101.9375 38.34375 99.984375 38.34375L98.09375 38.34375L98.09375 43.75L95.203125 43.75ZM98.09375 31.859375L98.09375 35.921875L99.671875 35.921875Q101.390625 35.921875 101.96875 35.703125Q102.546875 35.46875 102.859375 35.0Q103.1875 34.515625 103.1875 33.875Q103.1875 33.09375 102.734375 32.59375Q102.28125 32.078125 101.578125 31.953125Q101.0625 31.859375 99.5 31.859375L98.09375 31.859375ZM114.1875 40.453125L116.921875 40.90625Q116.40625 42.40625 115.265625 43.203125Q114.125 43.984375 112.421875 43.984375Q109.703125 43.984375 108.40625 42.21875Q107.390625 40.796875 107.390625 38.640625Q107.390625 36.0625 108.734375 34.609375Q110.078125 33.140625 112.140625 33.140625Q114.453125 33.140625 115.78125 34.671875Q117.125 36.203125 117.078125 39.359375L110.203125 39.359375Q110.234375 40.578125 110.859375 41.265625Q111.5 41.9375 112.4375 41.9375Q113.09375 41.9375 113.53125 41.59375Q113.96875 41.234375 114.1875 40.453125ZM114.34375 37.671875Q114.3125 36.484375 113.71875 35.875Q113.140625 35.25 112.3125 35.25Q111.40625 35.25 110.828125 35.890625Q110.234375 36.546875 110.25 37.671875L114.34375 37.671875ZM121.8125 43.75L119.0625 43.75L119.0625 33.375L121.625 33.375L121.625 34.859375Q122.265625 33.8125 122.78125 33.484375Q123.3125 33.140625 123.984375 33.140625Q124.921875 33.140625 125.78125 33.65625L124.9375 36.046875Q124.25 35.609375 123.65625 35.609375Q123.078125 35.609375 122.671875 35.921875Q122.265625 36.234375 122.03125 37.078125Q121.8125 37.90625 121.8125 40.546875L121.8125 43.75ZM125.984375 33.375L127.515625 33.375L127.515625 32.59375Q127.515625 31.28125 127.78125 30.640625Q128.0625 30.0 128.8125 29.59375Q129.5625 29.1875 130.70312 29.1875Q131.875 29.1875 133.0 29.546875L132.625 31.453125Q131.96875 31.296875 131.35938 31.296875Q130.76562 31.296875 130.5 31.578125Q130.25 31.859375 130.25 32.640625L130.25 33.375L132.29688 33.375L132.29688 35.53125L130.25 35.53125L130.25 43.75L127.515625 43.75L127.515625 35.53125L125.984375 35.53125L125.984375 33.375ZM133.54688 38.421875Q133.54688 37.046875 134.21875 35.765625Q134.90625 34.484375 136.14062 33.8125Q137.375 33.140625 138.89062 33.140625Q141.25 33.140625 142.75 34.671875Q144.25 36.203125 144.25 38.53125Q144.25 40.890625 142.73438 42.4375Q141.21875 43.984375 138.90625 43.984375Q137.48438 43.984375 136.1875 43.34375Q134.90625 42.6875 134.21875 41.453125Q133.54688 40.203125 133.54688 38.421875ZM136.35938 38.5625Q136.35938 40.109375 137.09375 40.9375Q137.82812 41.75 138.90625 41.75Q139.98438 41.75 140.70312 40.9375Q141.4375 40.109375 141.4375 38.546875Q141.4375 37.015625 140.70312 36.203125Q139.98438 35.375 138.90625 35.375Q137.82812 35.375 137.09375 36.203125Q136.35938 37.015625 136.35938 38.5625ZM148.8125 43.75L146.0625 43.75L146.0625 33.375L148.625 33.375L148.625 34.859375Q149.26562 33.8125 149.78125 33.484375Q150.3125 33.140625 150.98438 33.140625Q151.92188 33.140625 152.78125 33.65625L151.9375 36.046875Q151.25 35.609375 150.65625 35.609375Q150.07812 35.609375 149.67188 35.921875Q149.26562 36.234375 149.03125 37.078125Q148.8125 37.90625 148.8125 40.546875L148.8125 43.75ZM153.98438 33.375L156.51562 33.375L156.51562 34.796875Q157.875 33.140625 159.75 33.140625Q160.73438 33.140625 161.46875 33.5625Q162.20312 33.96875 162.67188 34.796875Q163.35938 33.96875 164.14062 33.5625Q164.9375 33.140625 165.84375 33.140625Q166.98438 33.140625 167.76562 33.609375Q168.5625 34.078125 168.95312 34.96875Q169.23438 35.640625 169.23438 37.125L169.23438 43.75L166.48438 43.75L166.48438 37.828125Q166.48438 36.28125 166.20312 35.828125Q165.82812 35.25 165.03125 35.25Q164.45312 35.25 163.9375 35.609375Q163.4375 35.953125 163.21875 36.625Q163.0 37.296875 163.0 38.765625L163.0 43.75L160.25 43.75L160.25 38.0625Q160.25 36.546875 160.09375 36.109375Q159.95312 35.671875 159.64062 35.46875Q159.34375 35.25 158.8125 35.25Q158.1875 35.25 157.67188 35.59375Q157.17188 35.921875 156.9375 36.578125Q156.71875 37.21875 156.71875 38.703125L156.71875 43.75L153.98438 43.75L153.98438 33.375ZM174.23438 36.546875L171.75 36.09375Q172.17188 34.59375 173.1875 33.875Q174.21875 33.140625 176.23438 33.140625Q178.07812 33.140625 178.96875 33.578125Q179.875 34.015625 180.23438 34.6875Q180.60938 35.34375 180.60938 37.140625L180.57812 40.34375Q180.57812 41.703125 180.70312 42.359375Q180.84375 43.0 181.20312 43.75L178.48438 43.75Q178.375 43.46875 178.21875 42.9375Q178.15625 42.6875 178.125 42.609375Q177.42188 43.296875 176.60938 43.640625Q175.8125 43.984375 174.90625 43.984375Q173.3125 43.984375 172.39062 43.125Q171.46875 42.25 171.46875 40.921875Q171.46875 40.03125 171.875 39.34375Q172.29688 38.65625 173.04688 38.296875Q173.8125 37.921875 175.25 37.65625Q177.17188 37.296875 177.90625 36.984375L177.90625 36.703125Q177.90625 35.921875 177.51562 35.59375Q177.125 35.25 176.04688 35.25Q175.3125 35.25 174.89062 35.53125Q174.48438 35.8125 174.23438 36.546875ZM177.90625 38.765625Q177.375 38.9375 176.23438 39.1875Q175.09375 39.4375 174.75 39.671875Q174.20312 40.046875 174.20312 40.640625Q174.20312 41.203125 174.625 41.625Q175.0625 42.046875 175.73438 42.046875Q176.46875 42.046875 177.14062 41.5625Q177.64062 41.1875 177.79688 40.65625Q177.90625 40.296875 177.90625 39.3125L177.90625 38.765625ZM192.625 43.75L189.875 43.75L189.875 38.453125Q189.875 36.78125 189.70312 36.296875Q189.53125 35.796875 189.125 35.53125Q188.73438 35.25 188.17188 35.25Q187.46875 35.25 186.89062 35.640625Q186.32812 36.03125 186.10938 36.671875Q185.90625 37.3125 185.90625 39.046875L185.90625 43.75L183.17188 43.75L183.17188 33.375L185.71875 33.375L185.71875 34.90625Q187.07812 33.140625 189.14062 33.140625Q190.04688 33.140625 190.79688 33.46875Q191.54688 33.796875 191.92188 34.3125Q192.3125 34.8125 192.46875 35.46875Q192.625 36.109375 192.625 37.296875L192.625 43.75ZM204.23438 36.4375L201.53125 36.9375Q201.39062 36.125 200.90625 35.71875Q200.42188 35.296875 199.65625 35.296875Q198.625 35.296875 198.01562 36.015625Q197.40625 36.71875 197.40625 38.375Q197.40625 40.21875 198.01562 40.984375Q198.64062 41.75 199.6875 41.75Q200.46875 41.75 200.96875 41.3125Q201.46875 40.859375 201.67188 39.78125L204.35938 40.234375Q203.95312 42.09375 202.75 43.046875Q201.5625 43.984375 199.5625 43.984375Q197.28125 43.984375 195.92188 42.546875Q194.57812 41.109375 194.57812 38.578125Q194.57812 36.0 195.9375 34.578125Q197.29688 33.140625 199.60938 33.140625Q201.5 33.140625 202.60938 33.96875Q203.73438 34.78125 204.23438 36.4375ZM212.1875 40.453125L214.92188 40.90625Q214.40625 42.40625 213.26562 43.203125Q212.125 43.984375 210.42188 43.984375Q207.70312 43.984375 206.40625 42.21875Q205.39062 40.796875 205.39062 38.640625Q205.39062 36.0625 206.73438 34.609375Q208.07812 33.140625 210.14062 33.140625Q212.45312 33.140625 213.78125 34.671875Q215.125 36.203125 215.07812 39.359375L208.20312 39.359375Q208.23438 40.578125 208.85938 41.265625Q209.5 41.9375 210.4375 41.9375Q211.09375 41.9375 211.53125 41.59375Q211.96875 41.234375 212.1875 40.453125ZM212.34375 37.671875Q212.3125 36.484375 211.71875 35.875Q211.14062 35.25 210.3125 35.25Q209.40625 35.25 208.82812 35.890625Q208.23438 36.546875 208.25 37.671875L212.34375 37.671875ZM226.85938 43.75L221.73438 29.4375L224.875 29.4375L228.5 40.03125L232.0 29.4375L235.07812 29.4375L229.9375 43.75L226.85938 43.75ZM235.21875 40.796875L237.96875 40.375Q238.15625 41.171875 238.6875 41.59375Q239.21875 42.0 240.1875 42.0Q241.25 42.0 241.79688 41.609375Q242.15625 41.34375 242.15625 40.875Q242.15625 40.5625 241.95312 40.359375Q241.75 40.171875 241.04688 40.0Q237.71875 39.265625 236.82812 38.65625Q235.59375 37.828125 235.59375 36.328125Q235.59375 34.984375 236.65625 34.0625Q237.73438 33.140625 239.96875 33.140625Q242.09375 33.140625 243.125 33.84375Q244.17188 34.53125 244.5625 35.890625L241.96875 36.359375Q241.79688 35.765625 241.32812 35.4375Q240.875 35.109375 240.01562 35.109375Q238.9375 35.109375 238.46875 35.421875Q238.15625 35.640625 238.15625 35.96875Q238.15625 36.265625 238.42188 36.46875Q238.79688 36.75 240.98438 37.25Q243.17188 37.75 244.04688 38.46875Q244.90625 39.203125 244.90625 40.5Q244.90625 41.9375 243.71875 42.96875Q242.53125 43.984375 240.1875 43.984375Q238.07812 43.984375 236.82812 43.125Q235.59375 42.265625 235.21875 40.796875ZM247.1875 43.75L247.1875 41.0L249.9375 41.0L249.9375 43.75L247.1875 43.75ZM259.20312 43.75L259.20312 29.4375L263.84375 29.4375Q266.48438 29.4375 267.28125 29.640625Q268.51562 29.96875 269.34375 31.046875Q270.17188 32.125 270.17188 33.84375Q270.17188 35.15625 269.6875 36.0625Q269.21875 36.953125 268.46875 37.46875Q267.73438 37.984375 266.98438 38.140625Q265.9375 38.34375 263.98438 38.34375L262.09375 38.34375L262.09375 43.75L259.20312 43.75ZM262.09375 31.859375L262.09375 35.921875L263.67188 35.921875Q265.39062 35.921875 265.96875 35.703125Q266.54688 35.46875 266.85938 35.0Q267.1875 34.515625 267.1875 33.875Q267.1875 33.09375 266.73438 32.59375Q266.28125 32.078125 265.57812 31.953125Q265.0625 31.859375 263.5 31.859375L262.09375 31.859375ZM274.8125 43.75L272.0625 43.75L272.0625 33.375L274.625 33.375L274.625 34.859375Q275.26562 33.8125 275.78125 33.484375Q276.3125 33.140625 276.98438 33.140625Q277.92188 33.140625 278.78125 33.65625L277.9375 36.046875Q277.25 35.609375 276.65625 35.609375Q276.07812 35.609375 275.67188 35.921875Q275.26562 36.234375 275.03125 37.078125Q274.8125 37.90625 274.8125 40.546875L274.8125 43.75ZM279.54688 38.421875Q279.54688 37.046875 280.21875 35.765625Q280.90625 34.484375 282.14062 33.8125Q283.375 33.140625 284.89062 33.140625Q287.25 33.140625 288.75 34.671875Q290.25 36.203125 290.25 38.53125Q290.25 40.890625 288.73438 42.4375Q287.21875 43.984375 284.90625 43.984375Q283.48438 43.984375 282.1875 43.34375Q280.90625 42.6875 280.21875 41.453125Q279.54688 40.203125 279.54688 38.421875ZM282.35938 38.5625Q282.35938 40.109375 283.09375 40.9375Q283.82812 41.75 284.90625 41.75Q285.98438 41.75 286.70312 40.9375Q287.4375 40.109375 287.4375 38.546875Q287.4375 37.015625 286.70312 36.203125Q285.98438 35.375 284.90625 35.375Q283.82812 35.375 283.09375 36.203125Q282.35938 37.015625 282.35938 38.5625ZM296.9375 33.375L296.9375 35.5625L295.0625 35.5625L295.0625 39.75Q295.0625 41.015625 295.10938 41.234375Q295.17188 41.4375 295.35938 41.578125Q295.5625 41.703125 295.82812 41.703125Q296.20312 41.703125 296.9375 41.4375L297.17188 43.578125Q296.20312 43.984375 295.0 43.984375Q294.25 43.984375 293.65625 43.734375Q293.0625 43.484375 292.78125 43.09375Q292.51562 42.6875 292.40625 42.015625Q292.3125 41.546875 292.3125 40.09375L292.3125 35.5625L291.04688 35.5625L291.04688 33.375L292.3125 33.375L292.3125 31.3125L295.0625 29.71875L295.0625 33.375L296.9375 33.375ZM298.54688 38.421875Q298.54688 37.046875 299.21875 35.765625Q299.90625 34.484375 301.14062 33.8125Q302.375 33.140625 303.89062 33.140625Q306.25 33.140625 307.75 34.671875Q309.25 36.203125 309.25 38.53125Q309.25 40.890625 307.73438 42.4375Q306.21875 43.984375 303.90625 43.984375Q302.48438 43.984375 301.1875 43.34375Q299.90625 42.6875 299.21875 41.453125Q298.54688 40.203125 298.54688 38.421875ZM301.35938 38.5625Q301.35938 40.109375 302.09375 40.9375Q302.82812 41.75 303.90625 41.75Q304.98438 41.75 305.70312 40.9375Q306.4375 40.109375 306.4375 38.546875Q306.4375 37.015625 305.70312 36.203125Q304.98438 35.375 303.90625 35.375Q302.82812 35.375 302.09375 36.203125Q301.35938 37.015625 301.35938 38.5625ZM311.0625 43.75L311.0625 29.4375L313.8125 29.4375L313.8125 34.59375Q315.07812 33.140625 316.82812 33.140625Q318.71875 33.140625 319.95312 34.515625Q321.20312 35.890625 321.20312 38.453125Q321.20312 41.109375 319.9375 42.546875Q318.67188 43.984375 316.85938 43.984375Q315.96875 43.984375 315.10938 43.546875Q314.25 43.09375 313.625 42.21875L313.625 43.75L311.0625 43.75ZM313.79688 38.34375Q313.79688 39.953125 314.29688 40.71875Q315.01562 41.8125 316.20312 41.8125Q317.10938 41.8125 317.75 41.046875Q318.39062 40.265625 318.39062 38.59375Q318.39062 36.8125 317.73438 36.03125Q317.09375 35.25 316.09375 35.25Q315.10938 35.25 314.45312 36.015625Q313.79688 36.78125 313.79688 38.34375ZM330.01562 43.75L330.01562 42.203125Q329.45312 43.03125 328.51562 43.515625Q327.59375 43.984375 326.57812 43.984375Q325.53125 43.984375 324.70312 43.53125Q323.875 43.0625 323.5 42.234375Q323.125 41.40625 323.125 39.9375L323.125 33.375L325.875 33.375L325.875 38.140625Q325.875 40.328125 326.01562 40.828125Q326.17188 41.3125 326.5625 41.609375Q326.96875 41.890625 327.59375 41.890625Q328.29688 41.890625 328.84375 41.515625Q329.40625 41.125 329.60938 40.5625Q329.8125 39.984375 329.8125 37.75L329.8125 33.375L332.5625 33.375L332.5625 43.75L330.01562 43.75ZM333.98438 33.375L335.51562 33.375L335.51562 32.59375Q335.51562 31.28125 335.78125 30.640625Q336.0625 30.0 336.8125 29.59375Q337.5625 29.1875 338.70312 29.1875Q339.875 29.1875 341.0 29.546875L340.625 31.453125Q339.96875 31.296875 339.35938 31.296875Q338.76562 31.296875 338.5 31.578125Q338.25 31.859375 338.25 32.640625L338.25 33.375L340.29688 33.375L340.29688 35.53125L338.25 35.53125L338.25 43.75L335.51562 43.75L335.51562 35.53125L333.98438 35.53125L333.98438 33.375ZM350.23438 36.546875L347.75 36.09375Q348.17188 34.59375 349.1875 33.875Q350.21875 33.140625 352.23438 33.140625Q354.07812 33.140625 354.96875 33.578125Q355.875 34.015625 356.23438 34.6875Q356.60938 35.34375 356.60938 37.140625L356.57812 40.34375Q356.57812 41.703125 356.70312 42.359375Q356.84375 43.0 357.20312 43.75L354.48438 43.75Q354.375 43.46875 354.21875 42.9375Q354.15625 42.6875 354.125 42.609375Q353.42188 43.296875 352.60938 43.640625Q351.8125 43.984375 350.90625 43.984375Q349.3125 43.984375 348.39062 43.125Q347.46875 42.25 347.46875 40.921875Q347.46875 40.03125 347.875 39.34375Q348.29688 38.65625 349.04688 38.296875Q349.8125 37.921875 351.25 37.65625Q353.17188 37.296875 353.90625 36.984375L353.90625 36.703125Q353.90625 35.921875 353.51562 35.59375Q353.125 35.25 352.04688 35.25Q351.3125 35.25 350.89062 35.53125Q350.48438 35.8125 350.23438 36.546875ZM353.90625 38.765625Q353.375 38.9375 352.23438 39.1875Q351.09375 39.4375 350.75 39.671875Q350.20312 40.046875 350.20312 40.640625Q350.20312 41.203125 350.625 41.625Q351.0625 42.046875 351.73438 42.046875Q352.46875 42.046875 353.14062 41.5625Q353.64062 41.1875 353.79688 40.65625Q353.90625 40.296875 353.90625 39.3125L353.90625 38.765625ZM368.625 43.75L365.875 43.75L365.875 38.453125Q365.875 36.78125 365.70312 36.296875Q365.53125 35.796875 365.125 35.53125Q364.73438 35.25 364.17188 35.25Q363.46875 35.25 362.89062 35.640625Q362.32812 36.03125 362.10938 36.671875Q361.90625 37.3125 361.90625 39.046875L361.90625 43.75L359.17188 43.75L359.17188 33.375L361.71875 33.375L361.71875 34.90625Q363.07812 33.140625 365.14062 33.140625Q366.04688 33.140625 366.79688 33.46875Q367.54688 33.796875 367.92188 34.3125Q368.3125 34.8125 368.46875 35.46875Q368.625 36.109375 368.625 37.296875L368.625 43.75ZM380.70312 43.75L378.15625 43.75L378.15625 42.21875Q377.51562 43.109375 376.64062 43.546875Q375.78125 43.984375 374.90625 43.984375Q373.125 43.984375 371.84375 42.546875Q370.57812 41.109375 370.57812 38.53125Q370.57812 35.890625 371.8125 34.515625Q373.04688 33.140625 374.95312 33.140625Q376.6875 33.140625 377.95312 34.59375L377.95312 29.4375L380.70312 29.4375L380.70312 43.75ZM373.375 38.34375Q373.375 40.0 373.82812 40.734375Q374.5 41.8125 375.6875 41.8125Q376.64062 41.8125 377.29688 41.015625Q377.96875 40.203125 377.96875 38.609375Q377.96875 36.8125 377.3125 36.03125Q376.67188 35.25 375.67188 35.25Q374.6875 35.25 374.03125 36.03125Q373.375 36.796875 373.375 38.34375ZM389.21875 43.75L389.21875 29.4375L399.04688 29.4375L399.04688 31.859375L392.10938 31.859375L392.10938 35.25L398.09375 35.25L398.09375 37.671875L392.10938 37.671875L392.10938 43.75L389.21875 43.75ZM401.1875 43.75L401.1875 29.4375L403.9375 29.4375L403.9375 43.75L401.1875 43.75ZM409.23438 36.546875L406.75 36.09375Q407.17188 34.59375 408.1875 33.875Q409.21875 33.140625 411.23438 33.140625Q413.07812 33.140625 413.96875 33.578125Q414.875 34.015625 415.23438 34.6875Q415.60938 35.34375 415.60938 37.140625L415.57812 40.34375Q415.57812 41.703125 415.70312 42.359375Q415.84375 43.0 416.20312 43.75L413.48438 43.75Q413.375 43.46875 413.21875 42.9375Q413.15625 42.6875 413.125 42.609375Q412.42188 43.296875 411.60938 43.640625Q410.8125 43.984375 409.90625 43.984375Q408.3125 43.984375 407.39062 43.125Q406.46875 42.25 406.46875 40.921875Q406.46875 40.03125 406.875 39.34375Q407.29688 38.65625 408.04688 38.296875Q408.8125 37.921875 410.25 37.65625Q412.17188 37.296875 412.90625 36.984375L412.90625 36.703125Q412.90625 35.921875 412.51562 35.59375Q412.125 35.25 411.04688 35.25Q410.3125 35.25 409.89062 35.53125Q409.48438 35.8125 409.23438 36.546875ZM412.90625 38.765625Q412.375 38.9375 411.23438 39.1875Q410.09375 39.4375 409.75 39.671875Q409.20312 40.046875 409.20312 40.640625Q409.20312 41.203125 409.625 41.625Q410.0625 42.046875 410.73438 42.046875Q411.46875 42.046875 412.14062 41.5625Q412.64062 41.1875 412.79688 40.65625Q412.90625 40.296875 412.90625 39.3125L412.90625 38.765625ZM422.9375 33.375L422.9375 35.5625L421.0625 35.5625L421.0625 39.75Q421.0625 41.015625 421.10938 41.234375Q421.17188 41.4375 421.35938 41.578125Q421.5625 41.703125 421.82812 41.703125Q422.20312 41.703125 422.9375 41.4375L423.17188 43.578125Q422.20312 43.984375 421.0 43.984375Q420.25 43.984375 419.65625 43.734375Q419.0625 43.484375 418.78125 43.09375Q418.51562 42.6875 418.40625 42.015625Q418.3125 41.546875 418.3125 40.09375L418.3125 35.5625L417.04688 35.5625L417.04688 33.375L418.3125 33.375L418.3125 31.3125L421.0625 29.71875L421.0625 33.375L422.9375 33.375ZM425.21875 29.4375L430.9375 29.4375Q432.64062 29.4375 433.46875 29.578125Q434.3125 29.71875 434.96875 30.171875Q435.625 30.609375 436.0625 31.359375Q436.5 32.109375 436.5 33.03125Q436.5 34.046875 435.95312 34.890625Q435.42188 35.71875 434.5 36.140625Q435.79688 36.515625 436.5 37.4375Q437.20312 38.359375 437.20312 39.59375Q437.20312 40.578125 436.75 41.5Q436.29688 42.421875 435.51562 42.984375Q434.73438 43.53125 433.57812 43.65625Q432.85938 43.734375 430.09375 43.75L425.21875 43.75L425.21875 29.4375ZM428.10938 31.8125L428.10938 35.125L430.0 35.125Q431.6875 35.125 432.09375 35.078125Q432.84375 34.984375 433.26562 34.5625Q433.6875 34.140625 433.6875 33.453125Q433.6875 32.78125 433.3125 32.375Q432.95312 31.953125 432.23438 31.859375Q431.8125 31.8125 429.76562 31.8125L428.10938 31.8125ZM428.10938 37.515625L428.10938 41.34375L430.78125 41.34375Q432.34375 41.34375 432.76562 41.25Q433.40625 41.125 433.8125 40.671875Q434.21875 40.21875 434.21875 39.46875Q434.21875 38.8125 433.90625 38.375Q433.59375 37.921875 433.0 37.71875Q432.40625 37.515625 430.4375 37.515625L428.10938 37.515625ZM446.01562 43.75L446.01562 42.203125Q445.45312 43.03125 444.51562 43.515625Q443.59375 43.984375 442.57812 43.984375Q441.53125 43.984375 440.70312 43.53125Q439.875 43.0625 439.5 42.234375Q439.125 41.40625 439.125 39.9375L439.125 33.375L441.875 33.375L441.875 38.140625Q441.875 40.328125 442.01562 40.828125Q442.17188 41.3125 442.5625 41.609375Q442.96875 41.890625 443.59375 41.890625Q444.29688 41.890625 444.84375 41.515625Q445.40625 41.125 445.60938 40.5625Q445.8125 39.984375 445.8125 37.75L445.8125 33.375L448.5625 33.375L448.5625 43.75L446.01562 43.75ZM449.98438 33.375L451.51562 33.375L451.51562 32.59375Q451.51562 31.28125 451.78125 30.640625Q452.0625 30.0 452.8125 29.59375Q453.5625 29.1875 454.70312 29.1875Q455.875 29.1875 457.0 29.546875L456.625 31.453125Q455.96875 31.296875 455.35938 31.296875Q454.76562 31.296875 454.5 31.578125Q454.25 31.859375 454.25 32.640625L454.25 33.375L456.29688 33.375L456.29688 35.53125L454.25 35.53125L454.25 43.75L451.51562 43.75L451.51562 35.53125L449.98438 35.53125L449.98438 33.375ZM456.98438 33.375L458.51562 33.375L458.51562 32.59375Q458.51562 31.28125 458.78125 30.640625Q459.0625 30.0 459.8125 29.59375Q460.5625 29.1875 461.70312 29.1875Q462.875 29.1875 464.0 29.546875L463.625 31.453125Q462.96875 31.296875 462.35938 31.296875Q461.76562 31.296875 461.5 31.578125Q461.25 31.859375 461.25 32.640625L461.25 33.375L463.29688 33.375L463.29688 35.53125L461.25 35.53125L461.25 43.75L458.51562 43.75L458.51562 35.53125L456.98438 35.53125L456.98438 33.375ZM471.1875 40.453125L473.92188 40.90625Q473.40625 42.40625 472.26562 43.203125Q471.125 43.984375 469.42188 43.984375Q466.70312 43.984375 465.40625 42.21875Q464.39062 40.796875 464.39062 38.640625Q464.39062 36.0625 465.73438 34.609375Q467.07812 33.140625 469.14062 33.140625Q471.45312 33.140625 472.78125 34.671875Q474.125 36.203125 474.07812 39.359375L467.20312 39.359375Q467.23438 40.578125 467.85938 41.265625Q468.5 41.9375 469.4375 41.9375Q470.09375 41.9375 470.53125 41.59375Q470.96875 41.234375 471.1875 40.453125ZM471.34375 37.671875Q471.3125 36.484375 470.71875 35.875Q470.14062 35.25 469.3125 35.25Q468.40625 35.25 467.82812 35.890625Q467.23438 36.546875 467.25 37.671875L471.34375 37.671875ZM478.8125 43.75L476.0625 43.75L476.0625 33.375L478.625 33.375L478.625 34.859375Q479.26562 33.8125 479.78125 33.484375Q480.3125 33.140625 480.98438 33.140625Q481.92188 33.140625 482.78125 33.65625L481.9375 36.046875Q481.25 35.609375 480.65625 35.609375Q480.07812 35.609375 479.67188 35.921875Q479.26562 36.234375 479.03125 37.078125Q478.8125 37.90625 478.8125 40.546875L478.8125 43.75ZM483.21875 40.796875L485.96875 40.375Q486.15625 41.171875 486.6875 41.59375Q487.21875 42.0 488.1875 42.0Q489.25 42.0 489.79688 41.609375Q490.15625 41.34375 490.15625 40.875Q490.15625 40.5625 489.95312 40.359375Q489.75 40.171875 489.04688 40.0Q485.71875 39.265625 484.82812 38.65625Q483.59375 37.828125 483.59375 36.328125Q483.59375 34.984375 484.65625 34.0625Q485.73438 33.140625 487.96875 33.140625Q490.09375 33.140625 491.125 33.84375Q492.17188 34.53125 492.5625 35.890625L489.96875 36.359375Q489.79688 35.765625 489.32812 35.4375Q488.875 35.109375 488.01562 35.109375Q486.9375 35.109375 486.46875 35.421875Q486.15625 35.640625 486.15625 35.96875Q486.15625 36.265625 486.42188 36.46875Q486.79688 36.75 488.98438 37.25Q491.17188 37.75 492.04688 38.46875Q492.90625 39.203125 492.90625 40.5Q492.90625 41.9375 491.71875 42.96875Q490.53125 43.984375 488.1875 43.984375Q486.07812 43.984375 484.82812 43.125Q483.59375 42.265625 483.21875 40.796875Z" fill-rule="nonzero"/></svg>